<?xml version="1.0" standalone="no"?>
<!DOCTYPE svg PUBLIC "-//W3C//DTD SVG 20010904//EN"
 "http://www.w3.org/TR/2001/REC-SVG-20010904/DTD/svg10.dtd">
<svg version="1.0" xmlns="http://www.w3.org/2000/svg"
 width="3664.000000pt" height="840.000000pt" viewBox="0 0 3664.000000 840.000000"
 preserveAspectRatio="xMidYMid meet">

<g transform="translate(0.000000,840.000000) scale(0.100000,-0.100000)"
fill="#000000" stroke="none">
<path d="M3975 8220 c-1011 -90 -1969 -568 -2638 -1318 -479 -537 -804 -1180
-947 -1877 -99 -479 -106 -1009 -20 -1511 198 -1163 935 -2202 1985 -2799 815
-465 1807 -623 2749 -439 1419 276 2589 1313 3040 2691 93 287 155 591 185
908 15 157 7 668 -13 815 -109 814 -401 1491 -911 2107 -93 113 -336 361 -442
452 -255 219 -547 414 -843 561 -412 206 -808 326 -1285 392 -170 23 -680 33
-860 18z m625 -1850 c505 -63 945 -274 1291 -619 359 -359 571 -801 630 -1310
15 -132 6 -442 -16 -571 -58 -340 -188 -654 -378 -915 -374 -513 -933 -833
-1561 -894 -128 -13 -1914 -15 -1933 -3 -8 5 50 22 140 41 424 91 887 254
1266 446 587 297 982 660 1197 1100 111 228 149 400 141 630 -7 169 -35 292
-100 428 -66 138 -111 203 -211 302 -137 137 -290 223 -486 275 -74 19 -124
23 -375 30 -159 5 -338 9 -397 9 l-108 1 0 -1325 0 -1325 -550 0 -550 0 0
1320 0 1320 -110 0 -110 0 0 535 0 535 1068 0 c681 0 1098 -4 1152 -10z"/>
<path d="M9420 4180 l0 -2091 1013 4 c990 3 1015 3 1127 25 438 82 815 275
1129 577 510 491 726 1185 589 1895 -67 353 -265 730 -528 1004 -289 302 -683
528 -1084 620 -214 50 -200 49 -1253 53 l-993 4 0 -2091z m2045 1352 c244 -56
443 -163 619 -332 245 -234 384 -530 417 -889 59 -626 -283 -1218 -824 -1430
-210 -82 -228 -84 -874 -88 l-573 -4 0 1386 0 1386 573 -4 c537 -3 578 -5 662
-25z"/>
<path d="M26250 4180 l0 -2090 360 0 360 0 0 2090 0 2090 -360 0 -360 0 0
-2090z"/>
<path d="M15038 5230 c-390 -29 -738 -189 -1019 -469 -287 -288 -439 -636
-455 -1046 -15 -358 88 -693 301 -980 229 -310 575 -530 967 -616 121 -26 405
-37 544 -20 322 39 654 181 864 369 l55 49 -45 49 c-24 27 -136 149 -249 271
l-204 222 -51 -43 c-118 -99 -223 -154 -359 -186 -238 -57 -474 -22 -681 102
-84 50 -226 188 -281 273 -99 151 -140 307 -133 495 10 229 95 409 271 576
400 381 1054 302 1351 -163 50 -78 55 -93 29 -93 -10 0 -219 0 -465 0 l-448 0
-5 -22 c-3 -13 -4 -196 -3 -408 l3 -385 841 -3 841 -2 17 62 c126 471 28 956
-273 1352 -321 423 -857 656 -1413 616z"/>
<path d="M24023 5229 c-215 -16 -400 -67 -597 -165 -452 -226 -757 -623 -853
-1109 -25 -127 -25 -463 0 -588 63 -310 209 -580 436 -808 228 -227 494 -371
815 -441 87 -19 132 -22 321 -22 190 0 234 3 323 22 106 23 262 69 274 80 3 4
-8 43 -26 87 -18 44 -70 172 -116 285 -46 113 -87 209 -91 214 -4 5 -44 -1
-91 -14 -104 -29 -307 -39 -412 -20 -341 60 -635 357 -711 722 -19 90 -19 277
0 368 61 290 270 557 530 676 190 87 466 88 672 2 245 -101 428 -316 505 -593
22 -80 23 -85 26 -922 l3 -843 365 0 365 0 -4 853 c-3 831 -4 854 -25 948 -32
140 -66 240 -126 365 -290 604 -900 952 -1583 903z"/>
<path d="M34343 5229 c-579 -44 -1091 -395 -1333 -911 -95 -203 -129 -356
-137 -608 -5 -160 -2 -202 16 -309 52 -307 195 -589 411 -815 264 -275 599
-443 970 -486 144 -17 396 -7 523 20 85 18 249 65 269 76 4 2 -42 125 -102
272 -139 343 -130 325 -154 319 -174 -43 -224 -49 -361 -44 -168 5 -252 29
-386 107 -368 214 -549 672 -423 1071 101 320 342 562 640 640 99 26 274 28
385 5 323 -68 563 -301 660 -641 23 -80 23 -81 26 -922 l4 -843 365 0 365 0
-4 843 c-3 942 -1 911 -77 1138 -152 458 -484 806 -942 988 -198 79 -482 118
-715 100z"/>
<path d="M18455 5149 c-537 -52 -975 -344 -1181 -785 -24 -50 -57 -138 -74
-194 -58 -196 -60 -242 -60 -1206 l0 -874 365 0 364 0 3 903 3 902 31 81 c110
284 338 447 644 461 98 5 128 2 200 -16 213 -56 381 -188 474 -374 74 -148 70
-92 74 -1074 l3 -883 359 0 359 0 3 883 c4 989 -1 922 80 1087 32 67 59 102
127 171 73 73 100 93 181 132 214 103 435 104 645 2 151 -73 253 -173 325
-320 72 -146 69 -102 72 -1075 l3 -875 363 -3 362 -2 0 882 c0 538 -4 918 -10
973 -57 497 -294 858 -695 1058 -420 209 -1006 200 -1448 -23 -118 -60 -165
-91 -270 -178 l-78 -64 -57 54 c-149 141 -342 246 -558 303 -185 48 -438 71
-609 54z"/>
<path d="M28815 5153 c-104 -8 -302 -46 -389 -74 -222 -73 -417 -190 -571
-344 -188 -187 -303 -401 -366 -685 l-24 -105 -3 -928 -3 -927 363 2 363 3 2
865 c2 591 6 884 14 925 45 242 234 446 484 525 106 33 275 38 382 11 305 -76
517 -316 547 -621 3 -30 6 -427 6 -882 l0 -828 360 0 360 0 0 844 c0 969 -1
958 77 1116 38 79 60 109 132 181 72 73 101 94 181 132 214 103 434 104 645 2
189 -91 325 -255 375 -451 19 -74 20 -114 20 -951 l0 -873 365 0 366 0 -4 938
c-4 1028 -2 985 -67 1209 -60 207 -165 388 -305 529 -328 330 -853 461 -1400
348 -239 -49 -489 -172 -667 -326 l-58 -51 -67 63 c-193 181 -473 302 -783
339 -106 13 -269 20 -335 14z"/>
</g>
</svg>
