<svg version="1.1" id="Layer_1" xmlns="http://www.w3.org/2000/svg" xmlns:xlink="http://www.w3.org/1999/xlink" x="0px" y="0px"
	 width="100%" viewBox="0 0 875 840" enable-background="new 0 0 875 840" xml:space="preserve">
<path fill="#FFFFFF" opacity="1.000000" stroke="none" 
	d="
M524.000000,841.000000 
	C349.333374,841.000000 175.166763,841.000000 1.000117,841.000000 
	C1.000078,561.000122 1.000078,281.000275 1.000039,1.000305 
	C292.666443,1.000203 584.332886,1.000203 875.999512,1.000102 
	C875.999634,280.999695 875.999634,560.999390 875.999817,840.999512 
	C758.833313,841.000000 641.666687,841.000000 524.000000,841.000000 
M724.993530,142.988678 
	C724.993530,142.988678 725.033386,142.991730 724.813171,142.384720 
	C723.547668,141.242538 722.282104,140.100357 721.000183,139.001785 
	C721.000183,139.001785 721.042175,138.981781 720.853638,138.375839 
	C719.814209,137.451279 718.774780,136.526703 717.608337,135.424026 
	C717.608337,135.424026 717.437256,135.287750 717.177185,134.788574 
	C716.459351,134.172714 715.741455,133.556854 715.010498,133.002441 
	C715.010498,133.002441 715.062378,132.967056 714.851990,132.316315 
	C709.902832,127.832283 704.953735,123.348244 699.698792,118.281616 
	C680.386902,100.862877 659.324707,85.856544 636.954590,72.635246 
	C601.099915,51.444214 562.858948,36.063293 522.186035,27.365757 
	C503.406677,23.349947 484.118073,21.715397 464.804291,18.632648 
	C464.420868,18.701616 464.037445,18.770582 463.263031,18.715092 
	C462.983032,18.658262 462.716064,18.695375 461.754364,18.295528 
	C442.759888,18.252056 423.765381,18.196606 404.770905,18.201349 
	C403.845001,18.201580 402.919250,18.729433 401.082672,19.015068 
	C388.546600,20.478798 375.909241,21.360151 363.494019,23.519011 
	C330.534729,29.250261 298.763733,39.010826 268.298309,52.960304 
	C185.336548,90.946800 122.141014,150.128204 78.864655,230.353546 
	C52.097950,279.973419 36.921257,333.061493 32.904339,389.406616 
	C29.813881,432.756378 33.175331,475.457520 43.791626,517.576172 
	C60.573864,584.157349 92.495720,642.567810 139.119461,692.900757 
	C173.371201,729.877502 213.289841,759.216003 258.682281,781.240967 
	C302.986511,802.737976 349.645721,815.523315 398.608582,819.736816 
	C432.359650,822.641357 466.105896,821.793701 499.498077,815.756226 
	C515.124878,812.930725 530.482727,808.617676 546.769348,805.011353 
	C551.210327,803.676575 555.752563,802.606812 560.072815,800.955933 
	C571.803467,796.473511 583.440002,791.744995 594.994263,787.056274 
	C594.994263,787.056274 595.089905,787.148438 595.833984,787.115601 
	C600.473389,785.024658 605.310608,783.281921 609.716187,780.779297 
	C624.574707,772.338806 639.279907,763.628357 654.003601,754.995972 
	C654.003601,754.995972 654.015015,755.041870 654.652771,754.953613 
	C655.471252,754.302917 656.289734,753.652161 657.777039,752.860718 
	C694.634705,728.263428 726.364258,698.203674 753.214417,662.994812 
	C786.267944,619.651367 809.583862,571.583618 823.015320,518.722046 
	C832.331665,482.056335 836.186096,444.872742 835.097717,407.041504 
	C834.387329,382.347626 831.498474,357.993591 826.340149,333.900421 
	C816.795288,289.319153 800.225891,247.424774 775.875916,208.908096 
	C765.353882,192.264389 752.770569,176.923843 740.941772,160.399612 
	C740.369934,159.851059 739.798035,159.302490 739.081909,158.996246 
	C739.081909,158.996246 739.254272,158.772934 739.070007,158.123978 
	C735.045532,153.745178 731.021057,149.366379 726.997559,145.003418 
	C726.997559,145.003418 727.013794,145.003571 726.804688,144.449493 
	C726.210754,143.953415 725.616760,143.457352 724.993530,142.988678 
z"/>
<path fill="#E61984" opacity="1.000000" stroke="none" 
	d="
M545.962463,804.978821 
	C530.482727,808.617676 515.124878,812.930725 499.498077,815.756226 
	C466.105896,821.793701 432.359650,822.641357 398.608582,819.736816 
	C349.645721,815.523315 302.986511,802.737976 258.682281,781.240967 
	C213.289841,759.216003 173.371201,729.877502 139.119461,692.900757 
	C92.495720,642.567810 60.573864,584.157349 43.791626,517.576172 
	C33.175331,475.457520 29.813881,432.756378 32.904339,389.406616 
	C36.921257,333.061493 52.097950,279.973419 78.864655,230.353546 
	C122.141014,150.128204 185.336548,90.946800 268.298309,52.960304 
	C298.763733,39.010826 330.534729,29.250261 363.494019,23.519011 
	C375.909241,21.360151 388.546600,20.478798 402.006470,19.055843 
	C422.774261,19.006556 442.618225,18.916492 462.462189,18.826427 
	C462.716064,18.695375 462.983032,18.658262 463.806061,18.860405 
	C464.586212,19.004206 464.823303,19.002695 465.060364,19.001184 
	C484.118073,21.715397 503.406677,23.349947 522.186035,27.365757 
	C562.858948,36.063293 601.099915,51.444214 636.954590,72.635246 
	C659.324707,85.856544 680.386902,100.862877 699.879028,118.949623 
	C702.109680,121.921654 705.105286,123.910141 706.003113,126.599022 
	C707.598694,131.377823 711.465027,131.710648 715.062378,132.967056 
	C715.062378,132.967056 715.010498,133.002441 715.017822,133.358551 
	C715.829163,134.239029 716.633179,134.763397 717.437256,135.287750 
	C717.437256,135.287750 717.608337,135.424026 717.434814,135.826111 
	C715.646851,141.093292 719.678528,138.205902 721.042175,138.981781 
	C721.042175,138.981781 721.000183,139.001785 721.026306,139.347000 
	C722.379395,140.792053 723.706421,141.891891 725.033386,142.991730 
	C725.033386,142.991730 724.993530,142.988678 725.032471,143.306168 
	C725.718811,144.083633 726.366333,144.543594 727.013794,145.003571 
	C727.013794,145.003571 726.997559,145.003418 726.962036,145.342758 
	C726.748169,146.465927 726.164551,147.711975 726.452209,147.964157 
	C730.651245,151.645065 734.966614,155.193161 739.254272,158.772934 
	C739.254272,158.772934 739.081909,158.996246 739.114746,159.230408 
	C739.806213,159.973495 740.464966,160.482422 741.123657,160.991348 
	C752.770569,176.923843 765.353882,192.264389 775.875916,208.908096 
	C800.225891,247.424774 816.795288,289.319153 826.340149,333.900421 
	C831.498474,357.993591 834.387329,382.347626 835.097717,407.041504 
	C836.186096,444.872742 832.331665,482.056335 823.015320,518.722046 
	C809.583862,571.583618 786.267944,619.651367 753.214417,662.994812 
	C726.364258,698.203674 694.634705,728.263428 657.074219,752.922729 
	C655.585938,753.670410 654.800476,754.356140 654.015015,755.041870 
	C654.015015,755.041870 654.003601,754.995972 653.625610,754.989258 
	C649.869873,756.428589 646.357300,757.630615 643.156677,759.397583 
	C640.589539,760.814880 638.595703,763.285828 636.011230,764.653931 
	C622.971741,771.556030 609.813782,778.234009 596.733948,785.060608 
	C596.017761,785.434387 595.630310,786.437988 595.089905,787.148438 
	C595.089905,787.148438 594.994263,787.056274 594.712158,787.007019 
	C587.601501,789.067627 580.745911,791.094849 573.951355,793.309326 
	C566.314087,795.798584 558.683716,798.327637 551.158630,801.130249 
	C549.217957,801.853027 547.683533,803.666443 545.962463,804.978821 
M390.363220,593.028931 
	C389.280151,593.743713 388.197113,594.458496 386.998505,595.104614 
	C386.998505,595.104614 387.130463,595.129822 386.280151,595.007019 
	C380.957703,596.594727 375.601715,598.084534 370.351288,599.882446 
	C369.618561,600.133362 369.404480,601.898804 368.396027,603.413391 
	C346.951660,610.605042 325.627563,618.187927 304.014648,624.831360 
	C292.364410,628.412476 280.219696,630.385010 267.463165,633.002258 
	C266.117218,633.137634 264.771240,633.273010 263.425293,633.408386 
	C263.320618,633.920776 263.215942,634.433167 263.111298,634.945618 
	C264.742706,635.634460 266.328827,636.736389 268.015472,636.921204 
	C270.972626,637.245178 273.991364,637.004944 276.984314,637.004395 
	C335.846436,636.992920 394.708618,636.998840 453.570557,636.890564 
	C455.387817,636.887268 457.202881,635.698853 459.724030,634.668762 
	C472.235382,632.199097 484.919495,630.383484 497.224915,627.133850 
	C530.631653,618.311707 559.515076,601.123291 584.872742,577.853516 
	C602.784790,561.416321 617.194580,542.230957 629.705444,520.929382 
	C632.097717,515.571411 634.489929,510.213470 636.901062,504.963257 
	C636.901062,504.963257 636.817749,504.892334 637.561035,504.871155 
	C638.464417,501.878632 639.367798,498.886139 640.329346,495.440247 
	C640.329346,495.440247 640.651550,495.116058 641.335999,495.005127 
	C641.893127,494.294281 642.737793,493.664520 642.964539,492.860504 
	C646.800781,479.255249 651.500854,465.857880 652.894409,451.659149 
	C653.878357,441.633423 655.501953,431.633728 655.812927,421.590607 
	C656.051697,413.880463 655.182068,406.039856 653.932434,398.400085 
	C651.464905,383.314056 648.537720,368.297028 645.447021,353.324432 
	C644.831299,350.341797 642.633423,347.685791 641.038086,344.484253 
	C641.038086,344.484253 641.019897,344.069855 641.036072,343.336029 
	C640.346985,341.880920 639.657898,340.425812 638.455505,338.501129 
	C620.793518,295.770416 592.695374,261.705292 553.676453,236.816498 
	C518.641663,214.469025 480.216919,203.270599 438.712006,203.037704 
	C397.555145,202.806763 356.395996,202.969254 315.237854,202.993668 
	C289.911469,203.008698 264.585144,203.088409 238.585403,203.064697 
	C238.013290,203.278870 236.928787,203.553131 236.945801,203.698212 
	C237.207977,205.933746 237.932449,208.151764 237.937469,210.375214 
	C238.007416,241.329758 237.966980,272.284546 238.022385,303.239136 
	C238.025787,305.142639 238.605133,307.045135 239.248489,309.711639 
	C240.712479,310.144287 242.166260,310.904266 243.642303,310.950317 
	C248.787949,311.110809 253.941315,311.024292 259.137756,311.861053 
	C259.426880,313.812531 259.967773,315.763855 259.968842,317.715515 
	C260.014587,401.241211 260.007538,484.766937 260.053070,568.292664 
	C260.053925,569.864136 260.608521,571.435364 261.158295,573.343079 
	C261.158295,573.343079 261.249420,573.754211 261.564362,574.510315 
	C262.529358,574.677246 263.494232,574.989197 264.459412,574.990112 
	C298.722290,575.021301 332.985229,575.033386 367.248077,574.988098 
	C368.464233,574.986511 369.679565,574.375732 371.006836,573.601257 
	C371.006836,573.601257 371.067627,573.144043 371.011536,573.073303 
	C371.011536,573.073303 371.086487,573.022949 371.649017,572.448242 
	C371.484467,569.295898 371.319916,566.143555 371.036743,562.339111 
	C371.077148,561.900879 371.117523,561.462646 371.688477,560.379883 
	C371.797150,558.728516 372.000610,557.077148 372.000885,555.425781 
	C372.014069,476.442932 372.010071,397.460114 372.006409,318.477264 
	C372.006104,311.944977 372.948547,310.978912 379.550140,310.996460 
	C405.390076,311.065186 431.252380,310.338745 457.601807,313.606171 
	C463.113861,315.036682 468.776794,316.049377 474.109985,317.975220 
	C490.830627,324.012909 504.475555,334.746704 515.359436,348.415009 
	C537.928589,376.758057 543.754883,409.339111 536.359985,444.260193 
	C530.745911,470.771332 517.485046,493.718872 500.351196,514.461731 
	C482.191284,536.446777 460.431030,554.251038 435.274811,568.965088 
	C429.272888,569.128479 425.620117,572.981384 422.224426,577.208740 
	C422.224426,577.208740 422.176056,577.240295 421.396912,577.062195 
	C417.978302,578.491089 414.546600,579.891052 411.173492,581.420410 
	C410.968933,581.513184 411.230316,582.633667 411.237091,583.245789 
	C411.237091,583.245789 411.189880,583.256653 410.306030,583.072083 
	C403.696289,582.406860 399.105133,585.375671 396.002197,590.993591 
	C396.002197,590.993591 396.025024,591.005005 395.215363,590.962463 
	C393.865234,591.713257 392.515106,592.464050 391.109619,593.216797 
	C391.109619,593.216797 391.144165,593.173584 390.363220,593.028931 
z"/>
<path fill="#CA3483" opacity="1.000000" stroke="none" 
	d="
M595.461914,787.132019 
	C595.630310,786.437988 596.017761,785.434387 596.733948,785.060608 
	C609.813782,778.234009 622.971741,771.556030 636.011230,764.653931 
	C638.595703,763.285828 640.589539,760.814880 643.156677,759.397583 
	C646.357300,757.630615 649.869873,756.428589 653.645691,755.001831 
	C639.279907,763.628357 624.574707,772.338806 609.716187,780.779297 
	C605.310608,783.281921 600.473389,785.024658 595.461914,787.132019 
z"/>
<path fill="#CA3483" opacity="1.000000" stroke="none" 
	d="
M546.365906,804.995117 
	C547.683533,803.666443 549.217957,801.853027 551.158630,801.130249 
	C558.683716,798.327637 566.314087,795.798584 573.951355,793.309326 
	C580.745911,791.094849 587.601501,789.067627 594.771973,787.035889 
	C583.440002,791.744995 571.803467,796.473511 560.072815,800.955933 
	C555.752563,802.606812 551.210327,803.676575 546.365906,804.995117 
z"/>
<path fill="#C45495" opacity="1.000000" stroke="none" 
	d="
M462.108276,18.560978 
	C442.618225,18.916492 422.774261,19.006556 402.461853,19.054108 
	C402.919250,18.729433 403.845001,18.201580 404.770905,18.201349 
	C423.765381,18.196606 442.759888,18.252056 462.108276,18.560978 
z"/>
<path fill="#C93282" opacity="1.000000" stroke="none" 
	d="
M714.957153,132.641693 
	C711.465027,131.710648 707.598694,131.377823 706.003113,126.599022 
	C705.105286,123.910141 702.109680,121.921654 700.031860,119.240921 
	C704.953735,123.348244 709.902832,127.832283 714.957153,132.641693 
z"/>
<path fill="#CB3586" opacity="1.000000" stroke="none" 
	d="
M739.162109,158.448456 
	C734.966614,155.193161 730.651245,151.645065 726.452209,147.964157 
	C726.164551,147.711975 726.748169,146.465927 726.961548,145.334839 
	C731.021057,149.366379 735.045532,153.745178 739.162109,158.448456 
z"/>
<path fill="#C32E7E" opacity="1.000000" stroke="none" 
	d="
M720.947876,138.678802 
	C719.678528,138.205902 715.646851,141.093292 717.498413,135.915161 
	C718.774780,136.526703 719.814209,137.451279 720.947876,138.678802 
z"/>
<path fill="#C32E7E" opacity="1.000000" stroke="none" 
	d="
M724.923279,142.688217 
	C723.706421,141.891891 722.379395,140.792053 721.034546,139.325195 
	C722.282104,140.100357 723.547668,141.242538 724.923279,142.688217 
z"/>
<path fill="#C32E7E" opacity="1.000000" stroke="none" 
	d="
M717.307251,135.038177 
	C716.633179,134.763397 715.829163,134.239029 715.024353,133.327835 
	C715.741455,133.556854 716.459351,134.172714 717.307251,135.038177 
z"/>
<path fill="#CA3483" opacity="1.000000" stroke="none" 
	d="
M654.333862,754.997742 
	C654.800476,754.356140 655.585938,753.670410 656.739746,752.993042 
	C656.289734,753.652161 655.471252,754.302917 654.333862,754.997742 
z"/>
<path fill="#CB3586" opacity="1.000000" stroke="none" 
	d="
M741.032715,160.695480 
	C740.464966,160.482422 739.806213,159.973495 739.186890,159.109253 
	C739.798035,159.302490 740.369934,159.851059 741.032715,160.695480 
z"/>
<path fill="#CB3586" opacity="1.000000" stroke="none" 
	d="
M726.909241,144.726532 
	C726.366333,144.543594 725.718811,144.083633 725.047119,143.292465 
	C725.616760,143.457352 726.210754,143.953415 726.909241,144.726532 
z"/>
<path fill="#C45495" opacity="1.000000" stroke="none" 
	d="
M464.932312,18.816917 
	C464.823303,19.002695 464.586212,19.004206 464.001556,18.922634 
	C464.037445,18.770582 464.420868,18.701616 464.932312,18.816917 
z"/>
<path fill="#FFFFFF" opacity="1.000000" stroke="none" 
	d="
M239.258789,203.139084 
	C264.585144,203.088409 289.911469,203.008698 315.237854,202.993668 
	C356.395996,202.969254 397.555145,202.806763 438.712006,203.037704 
	C480.216919,203.270599 518.641663,214.469025 553.676453,236.816498 
	C592.695374,261.705292 620.793518,295.770416 638.728149,339.093048 
	C639.673767,341.146606 640.346863,342.608215 641.019897,344.069855 
	C641.019897,344.069855 641.038086,344.484253 641.069458,345.070984 
	C643.235107,352.756012 645.683899,359.777191 647.447449,366.966431 
	C653.908997,393.307495 656.496643,420.031250 651.908508,446.873260 
	C649.131287,463.120880 644.467651,479.046021 640.651550,495.116058 
	C640.651550,495.116058 640.329346,495.440247 640.138428,496.005676 
	C638.904297,499.344879 637.861023,502.118591 636.817749,504.892334 
	C636.817749,504.892334 636.901062,504.963257 636.600830,505.107544 
	C633.871887,510.516663 631.443176,515.781494 629.014465,521.046326 
	C617.194580,542.230957 602.784790,561.416321 584.872742,577.853516 
	C559.515076,601.123291 530.631653,618.311707 497.224915,627.133850 
	C484.919495,630.383484 472.235382,632.199097 458.902527,634.837280 
	C393.967926,635.005798 329.854889,635.005798 264.641235,635.005798 
	C266.590607,633.980957 267.444336,633.532104 268.298035,633.083313 
	C280.219696,630.385010 292.364410,628.412476 304.014648,624.831360 
	C325.627563,618.187927 346.951660,610.605042 369.050903,603.177856 
	C375.514038,600.338135 381.322235,597.733948 387.130463,595.129822 
	C387.130463,595.129822 386.998505,595.104614 387.392517,595.126526 
	C388.905701,594.490112 390.024933,593.831848 391.144165,593.173584 
	C391.144165,593.173584 391.109619,593.216797 391.481567,593.205444 
	C393.243988,592.464355 394.634491,591.734680 396.025024,591.005005 
	C396.025024,591.005005 396.002197,590.993591 396.370117,590.980469 
	C401.555328,588.397095 406.372620,585.826904 411.189880,583.256714 
	C411.189880,583.256653 411.237091,583.245789 411.608337,583.220764 
	C415.378387,581.210571 418.777222,579.225403 422.176025,577.240234 
	C422.176056,577.240295 422.224426,577.208740 422.582520,577.188354 
	C427.328217,574.445618 431.715759,571.723267 436.103333,569.000977 
	C460.431030,554.251038 482.191284,536.446777 500.351196,514.461731 
	C517.485046,493.718872 530.745911,470.771332 536.359985,444.260193 
	C543.754883,409.339111 537.928589,376.758057 515.359436,348.415009 
	C504.475555,334.746704 490.830627,324.012909 474.109985,317.975220 
	C468.776794,316.049377 463.113861,315.036682 457.158691,313.005737 
	C452.139221,311.609741 447.581421,310.272583 442.983246,310.115234 
	C425.847565,309.528717 408.699249,309.291931 391.554352,309.003540 
	C384.793030,308.889801 378.028229,308.984894 370.978668,308.984894 
	C370.978668,311.293030 370.978638,312.939117 370.978668,314.585205 
	C370.980347,395.235748 370.981049,475.886322 370.990936,556.536865 
	C370.991119,558.032715 371.099823,559.528564 371.157898,561.024414 
	C371.117523,561.462646 371.077148,561.900879 371.023743,563.117004 
	C371.035980,566.937561 371.061218,569.980286 371.086487,573.022949 
	C371.086487,573.022949 371.011536,573.073303 370.850983,573.254517 
	C370.419006,573.604065 370.161346,573.791260 369.457581,573.927307 
	C333.081665,573.822876 297.165527,573.788574 261.249420,573.754211 
	C261.249420,573.754211 261.158295,573.343079 261.074982,572.706177 
	C260.993591,491.246796 260.995514,410.424316 260.997345,329.601837 
	C260.997467,324.435883 261.100677,319.266083 260.910736,314.107117 
	C260.872223,313.061035 259.726837,312.055756 259.091736,311.031647 
	C253.941315,311.024292 248.787949,311.110809 243.642303,310.950317 
	C242.166260,310.904266 240.712479,310.144287 239.124512,308.867950 
	C239.000015,284.046600 238.973129,260.068878 239.010788,236.091263 
	C239.028030,225.107101 239.172195,214.123138 239.258789,203.139084 
z"/>
<path fill="#C7317D" opacity="1.000000" stroke="none" 
	d="
M371.423187,560.702148 
	C371.099823,559.528564 370.991119,558.032715 370.990936,556.536865 
	C370.981049,475.886322 370.980347,395.235748 370.978668,314.585205 
	C370.978638,312.939117 370.978668,311.293030 370.978668,308.984894 
	C378.028229,308.984894 384.793030,308.889801 391.554352,309.003540 
	C408.699249,309.291931 425.847565,309.528717 442.983246,310.115234 
	C447.581421,310.272583 452.139221,311.609741 456.866547,312.767059 
	C431.252380,310.338745 405.390076,311.065186 379.550140,310.996460 
	C372.948547,310.978912 372.006104,311.944977 372.006409,318.477264 
	C372.010071,397.460114 372.014069,476.442932 372.000885,555.425781 
	C372.000610,557.077148 371.797150,558.728516 371.423187,560.702148 
z"/>
<path fill="#B13879" opacity="1.000000" stroke="none" 
	d="
M267.880615,633.042725 
	C267.444336,633.532104 266.590607,633.980957 264.641235,635.005798 
	C329.854889,635.005798 393.967926,635.005798 458.549988,635.034363 
	C457.202881,635.698853 455.387817,636.887268 453.570557,636.890564 
	C394.708618,636.998840 335.846436,636.992920 276.984314,637.004395 
	C273.991364,637.004944 270.972626,637.245178 268.015472,636.921204 
	C266.328827,636.736389 264.742706,635.634460 263.111298,634.945618 
	C263.215942,634.433167 263.320618,633.920776 263.425293,633.408386 
	C264.771240,633.273010 266.117218,633.137634 267.880615,633.042725 
z"/>
<path fill="#B82C79" opacity="1.000000" stroke="none" 
	d="
M259.114746,311.446350 
	C259.726837,312.055756 260.872223,313.061035 260.910736,314.107117 
	C261.100677,319.266083 260.997467,324.435883 260.997345,329.601837 
	C260.995514,410.424316 260.993591,491.246796 260.948242,572.537964 
	C260.608521,571.435364 260.053925,569.864136 260.053070,568.292664 
	C260.007538,484.766937 260.014587,401.241211 259.968842,317.715515 
	C259.967773,315.763855 259.426880,313.812531 259.114746,311.446350 
z"/>
<path fill="#BC397F" opacity="1.000000" stroke="none" 
	d="
M640.993774,495.060608 
	C644.467651,479.046021 649.131287,463.120880 651.908508,446.873260 
	C656.496643,420.031250 653.908997,393.307495 647.447449,366.966431 
	C645.683899,359.777191 643.235107,352.756012 641.132996,345.268433 
	C642.633423,347.685791 644.831299,350.341797 645.447021,353.324432 
	C648.537720,368.297028 651.464905,383.314056 653.932434,398.400085 
	C655.182068,406.039856 656.051697,413.880463 655.812927,421.590607 
	C655.501953,431.633728 653.878357,441.633423 652.894409,451.659149 
	C651.500854,465.857880 646.800781,479.255249 642.964539,492.860504 
	C642.737793,493.664520 641.893127,494.294281 640.993774,495.060608 
z"/>
<path fill="#9D3E76" opacity="1.000000" stroke="none" 
	d="
M261.406891,574.132263 
	C297.165527,573.788574 333.081665,573.822876 369.702148,573.946167 
	C370.406555,574.035217 370.895294,574.048889 370.895294,574.048889 
	C369.679565,574.375732 368.464233,574.986511 367.248077,574.988098 
	C332.985229,575.033386 298.722290,575.021301 264.459412,574.990112 
	C263.494232,574.989197 262.529358,574.677246 261.406891,574.132263 
z"/>
<path fill="#C22A76" opacity="1.000000" stroke="none" 
	d="
M238.922089,203.101898 
	C239.172195,214.123138 239.028030,225.107101 239.010788,236.091263 
	C238.973129,260.068878 239.000015,284.046600 238.958527,308.486176 
	C238.605133,307.045135 238.025787,305.142639 238.022385,303.239136 
	C237.966980,272.284546 238.007416,241.329758 237.937469,210.375214 
	C237.932449,208.151764 237.207977,205.933746 236.945801,203.698212 
	C236.928787,203.553131 238.013290,203.278870 238.922089,203.101898 
z"/>
<path fill="#CA3A84" opacity="1.000000" stroke="none" 
	d="
M410.747986,583.164429 
	C406.372620,585.826904 401.555328,588.397095 396.368774,590.993103 
	C399.105133,585.375671 403.696289,582.406860 410.747986,583.164429 
z"/>
<path fill="#CA3A84" opacity="1.000000" stroke="none" 
	d="
M386.705322,595.068420 
	C381.322235,597.733948 375.514038,600.338135 369.328064,602.952698 
	C369.404480,601.898804 369.618561,600.133362 370.351288,599.882446 
	C375.601715,598.084534 380.957703,596.594727 386.705322,595.068420 
z"/>
<path fill="#CA3A84" opacity="1.000000" stroke="none" 
	d="
M435.689087,568.983032 
	C431.715759,571.723267 427.328217,574.445618 422.590820,577.215942 
	C425.620117,572.981384 429.272888,569.128479 435.689087,568.983032 
z"/>
<path fill="#BC397F" opacity="1.000000" stroke="none" 
	d="
M629.359985,520.987854 
	C631.443176,515.781494 633.871887,510.516663 636.591431,505.053650 
	C634.489929,510.213470 632.097717,515.571411 629.359985,520.987854 
z"/>
<path fill="#CA3A84" opacity="1.000000" stroke="none" 
	d="
M421.786469,577.151245 
	C418.777222,579.225403 415.378387,581.210571 411.627228,583.235840 
	C411.230316,582.633667 410.968933,581.513184 411.173492,581.420410 
	C414.546600,579.891052 417.978302,578.491089 421.786469,577.151245 
z"/>
<path fill="#BC397F" opacity="1.000000" stroke="none" 
	d="
M637.189392,504.881744 
	C637.861023,502.118591 638.904297,499.344879 640.109375,496.232361 
	C639.367798,498.886139 638.464417,501.878632 637.189392,504.881744 
z"/>
<path fill="#C7317D" opacity="1.000000" stroke="none" 
	d="
M371.367737,572.735596 
	C371.061218,569.980286 371.035980,566.937561 371.083069,563.443054 
	C371.319916,566.143555 371.484467,569.295898 371.367737,572.735596 
z"/>
<path fill="#CA3A84" opacity="1.000000" stroke="none" 
	d="
M395.620178,590.983765 
	C394.634491,591.734680 393.243988,592.464355 391.509216,593.204407 
	C392.515106,592.464050 393.865234,591.713257 395.620178,590.983765 
z"/>
<path fill="#CA3A84" opacity="1.000000" stroke="none" 
	d="
M390.753693,593.101257 
	C390.024933,593.831848 388.905701,594.490112 387.450287,595.160889 
	C388.197113,594.458496 389.280151,593.743713 390.753693,593.101257 
z"/>
<path fill="#BC397F" opacity="1.000000" stroke="none" 
	d="
M641.027954,343.702942 
	C640.346863,342.608215 639.673767,341.146606 638.984802,339.327820 
	C639.657898,340.425812 640.346985,341.880920 641.027954,343.702942 
z"/>
<path fill="#C7317D" opacity="1.000000" stroke="none" 
	d="
M370.951050,573.825073 
	C370.895294,574.048889 370.406555,574.035217 370.161987,574.016357 
	C370.161346,573.791260 370.419006,573.604065 370.879028,573.289917 
	C371.067627,573.144043 371.006836,573.601257 370.951050,573.825073 
z"/>
</svg>