<svg version="1.1" id="Layer_1" xmlns="http://www.w3.org/2000/svg" xmlns:xlink="http://www.w3.org/1999/xlink" x="0px" y="0px"
	 width="100%" viewBox="0 0 3664 840" enable-background="new 0 0 3664 840" xml:space="preserve">
<path fill="#FFFFFF" opacity="1.000000" stroke="none" 
	d="
M2669.000000,841.000000 
	C1779.333374,841.000000 890.166687,841.000000 1.000000,841.000000 
	C1.000000,561.000000 1.000000,281.000000 1.000000,1.000000 
	C1222.333374,1.000000 2443.666748,1.000000 3665.000000,1.000000 
	C3665.000000,281.000000 3665.000000,561.000000 3665.000000,841.000000 
	C3333.166748,841.000000 3001.333252,841.000000 2669.000000,841.000000 
M2625.849365,631.141235 
	C2625.849365,631.141235 2625.830322,631.171997 2626.071289,631.917969 
	C2626.836182,632.129333 2627.600830,632.524292 2628.365967,632.525452 
	C2650.554199,632.559265 2672.742188,632.573547 2694.930176,632.494385 
	C2696.011475,632.490540 2697.089355,631.611328 2698.146484,631.072815 
	C2698.146484,631.072815 2698.081787,631.101196 2698.439697,630.358093 
	C2698.478271,629.527039 2698.550781,628.695923 2698.550781,627.864868 
	C2698.559326,491.533508 2698.563477,355.202179 2698.552246,218.870834 
	C2698.552002,217.298126 2698.349365,215.725449 2698.249023,214.268051 
	C2673.755371,214.268051 2649.821045,214.268051 2625.458008,214.268051 
	C2625.458008,216.164368 2625.458008,217.803802 2625.458008,219.443222 
	C2625.455322,353.274719 2625.450928,487.106201 2625.464600,620.937683 
	C2625.464600,622.752563 2625.687256,624.567444 2625.562744,627.461609 
	C2625.638428,628.190308 2625.714111,628.918945 2625.549072,629.958008 
	C2625.653320,630.341187 2625.757568,630.724365 2625.849365,631.141235 
M1787.941650,631.162292 
	C1787.961792,629.500977 1787.998047,627.839722 1787.999878,626.178406 
	C1788.064575,569.845215 1788.125977,513.512085 1788.600586,456.518280 
	C1794.086304,418.667847 1827.490967,393.785217 1865.322998,397.248840 
	C1905.030396,400.884186 1931.296021,433.104218 1930.667236,470.209015 
	C1929.783447,522.351135 1930.493042,574.519287 1930.311035,626.675598 
	C1930.293945,631.551208 1931.670654,632.794678 1936.468262,632.728699 
	C1956.294189,632.455811 1976.125977,632.636353 1995.955688,632.613708 
	C2004.610474,632.603821 2003.564697,633.436462 2003.568359,624.746399 
	C2003.590210,572.922607 2003.705566,521.098267 2003.509888,469.275208 
	C2003.437378,450.092255 2008.942749,433.093964 2022.232300,419.230286 
	C2046.103027,394.328430 2083.894531,389.537323 2113.128662,407.968933 
	C2133.733398,420.959808 2145.752441,439.911560 2145.971680,464.599518 
	C2146.445312,517.918396 2146.160645,571.243958 2146.186279,624.566772 
	C2146.187500,627.022827 2146.186523,629.478882 2146.186523,632.280579 
	C2170.617188,632.280579 2194.517334,632.280579 2219.003418,632.280579 
	C2219.003418,630.370605 2219.003662,628.591003 2219.003418,626.811462 
	C2218.994385,573.654663 2219.254639,520.495483 2218.789551,467.342651 
	C2218.671143,453.800171 2217.453125,440.023590 2214.654053,426.796021 
	C2207.511230,393.039154 2190.079834,365.605347 2160.370850,347.139832 
	C2131.720703,329.332458 2100.111084,323.337006 2066.749023,325.817810 
	C2044.330200,327.484863 2022.558105,332.209137 2002.836548,343.307129 
	C1990.934692,350.004730 1979.918823,358.277039 1968.214966,366.033905 
	C1964.562256,362.790405 1960.180298,358.442932 1955.342285,354.682007 
	C1934.300049,338.324432 1910.137695,330.207977 1883.860962,326.850525 
	C1850.355591,322.569458 1818.432007,327.004883 1788.504272,342.696838 
	C1741.143921,367.529205 1716.692505,407.617401 1715.326416,460.478851 
	C1713.949219,513.766846 1715.014771,567.118042 1715.021851,620.441589 
	C1715.022339,623.603821 1715.126343,626.765991 1715.032349,630.582764 
	C1715.059204,631.027649 1715.086060,631.472534 1715.504639,632.667236 
	C1716.152344,632.777832 1716.800049,632.984802 1717.447754,632.985168 
	C1739.832520,632.998718 1762.217163,633.004761 1784.601807,632.951294 
	C1785.645630,632.948853 1786.688232,632.389832 1787.941650,631.162292 
M2957.887695,441.047729 
	C2957.887695,441.047729 2957.807373,441.118683 2957.887695,441.889801 
	C2961.402100,450.848572 2962.409912,460.195587 2962.403809,469.742340 
	C2962.370605,519.552429 2962.388672,569.362549 2962.414551,619.172668 
	C2962.415771,621.148804 2962.679199,623.124817 2962.640137,625.705017 
	C2962.704590,626.116150 2962.769287,626.527283 2962.512451,627.581177 
	C2961.760742,631.472778 2963.173828,632.770142 2967.279785,632.730347 
	C2988.260986,632.527161 3009.246826,632.494019 3030.227295,632.735657 
	C3034.793457,632.788208 3035.705811,631.296509 3035.694336,627.030945 
	C3035.554932,575.405823 3035.688721,523.780029 3035.545898,472.154999 
	C3035.514160,460.720551 3036.704346,449.612122 3041.138184,438.735138 
	C3041.138184,438.735138 3041.118896,438.445862 3041.656982,437.971680 
	C3042.761719,435.637756 3043.866455,433.303864 3045.520752,430.585022 
	C3046.817627,428.654572 3048.002197,426.636871 3049.427979,424.806732 
	C3068.806396,399.932648 3101.756104,390.487183 3131.350586,401.282745 
	C3160.316895,411.849213 3178.030273,437.251434 3178.032227,468.226440 
	C3178.035400,521.051331 3178.038818,573.876221 3178.041992,626.701111 
	C3178.041992,628.487244 3178.041992,630.273315 3178.041992,632.246216 
	C3202.616699,632.246216 3226.655273,632.246216 3250.999268,632.246216 
	C3250.999268,630.217224 3250.999512,628.561218 3250.999268,626.905212 
	C3250.993896,573.747070 3250.877441,520.588501 3251.049805,467.430939 
	C3251.102539,451.176697 3249.358643,435.245331 3244.942383,419.618317 
	C3232.551025,375.769562 3204.590820,346.778931 3161.262939,332.924347 
	C3137.678467,325.382935 3113.563232,323.494873 3088.860596,326.849487 
	C3065.287354,330.050690 3043.164551,336.879700 3023.192871,349.848450 
	C3015.446533,354.878540 3008.347900,360.905670 3001.048828,366.407104 
	C2994.815674,361.268311 2988.743164,355.573425 2982.000000,350.832123 
	C2962.122559,336.856049 2939.734375,329.852081 2915.700195,326.852875 
	C2880.616943,322.474915 2847.443604,327.508881 2816.483887,344.918457 
	C2771.257324,370.351074 2748.377930,409.822723 2747.281738,460.997314 
	C2746.100830,516.130005 2747.005371,571.307251 2746.999756,626.465088 
	C2746.999512,628.393250 2746.999756,630.321411 2746.999756,632.216553 
	C2771.591064,632.216553 2795.492676,632.216553 2819.806152,632.216553 
	C2819.806152,630.001404 2819.806152,628.195129 2819.806152,626.388855 
	C2819.807617,573.897217 2819.756592,521.405518 2819.882812,468.914185 
	C2819.897217,462.961182 2820.241455,456.858246 2821.562256,451.083069 
	C2831.570068,407.315308 2881.006348,384.195526 2921.750732,403.784790 
	C2937.728760,411.466614 2948.984131,423.525787 2957.025146,439.621399 
	C2957.309570,440.132416 2957.593750,440.643433 2957.887695,441.047729 
M2503.921143,465.970673 
	C2503.947510,517.158630 2503.962402,568.346558 2504.047607,619.534485 
	C2504.050537,621.302185 2504.755371,623.068726 2506.045410,624.964294 
	C2529.622803,624.964294 2553.200195,624.964294 2576.978760,624.964294 
	C2576.978760,622.395935 2576.978760,620.572693 2576.978760,618.749451 
	C2576.980957,571.257263 2576.842041,523.764465 2577.049316,476.273132 
	C2577.141846,455.026184 2573.302734,434.723267 2565.003906,415.163818 
	C2535.640869,345.960236 2464.272217,307.240509 2388.830811,319.468658 
	C2358.979248,324.307281 2332.361328,336.784149 2309.731934,356.905090 
	C2262.222656,399.148346 2245.773438,452.166046 2260.568604,513.299438 
	C2273.055420,564.893677 2306.282227,600.504089 2355.303955,620.864746 
	C2386.511719,633.826538 2418.878662,635.577393 2451.743408,628.525757 
	C2459.922852,626.770752 2467.867920,623.925293 2476.392090,621.443848 
	C2467.938721,600.683350 2459.901123,580.944702 2452.029053,561.611877 
	C2445.610840,563.085754 2440.009277,564.671082 2434.302002,565.627319 
	C2416.212891,568.658386 2398.475098,567.705200 2381.682617,559.584167 
	C2339.894531,539.375061 2319.034180,492.163788 2333.136963,447.628815 
	C2345.467773,408.689514 2382.337402,375.556396 2431.440674,383.938782 
	C2461.489014,389.068298 2483.313232,405.531555 2495.372803,433.540192 
	C2499.633057,443.435364 2501.163086,454.506195 2503.921143,465.970673 
M3538.976562,624.962769 
	C3562.228516,624.962769 3585.480469,624.962769 3608.990479,624.962769 
	C3608.990479,622.323425 3608.990479,620.342285 3608.990479,618.361145 
	C3608.989502,570.372131 3608.911865,522.382874 3609.013916,474.394104 
	C3609.086182,440.456299 3598.974121,409.628357 3578.582764,382.892700 
	C3538.960693,330.943298 3485.583984,309.946411 3421.493652,319.620758 
	C3373.803467,326.819519 3336.359619,352.065613 3310.478271,393.222778 
	C3289.559326,426.489044 3283.437256,462.909637 3289.735840,501.370544 
	C3294.515137,530.553955 3306.889648,556.462341 3326.910889,578.313171 
	C3367.667969,622.794861 3418.294189,639.194763 3477.466797,629.695862 
	C3487.800781,628.036926 3497.833008,624.497559 3508.451660,621.709290 
	C3499.913086,600.748718 3491.862793,580.986511 3483.808105,561.213806 
	C3471.799561,565.207947 3460.114014,567.142883 3448.008301,567.067139 
	C3417.288818,566.874817 3393.690918,552.791809 3377.196045,528.088928 
	C3356.047607,496.417053 3354.223389,462.559235 3373.321533,429.178864 
	C3391.812500,396.859039 3419.752197,379.983978 3457.876465,383.057831 
	C3491.657959,385.781525 3520.680664,409.384094 3530.894775,442.312317 
	C3533.188721,449.707184 3534.269531,457.478485 3535.809814,465.996307 
	C3535.876709,470.160309 3536.000732,474.324280 3536.001709,478.488281 
	C3536.012207,525.315552 3536.003906,572.142761 3536.002686,618.970032 
	C3536.002686,620.469604 3535.842285,622.005615 3536.129639,623.450500 
	C3536.242432,624.017212 3537.381836,624.379700 3538.976562,624.962769 
M943.039062,217.985214 
	C943.039062,356.064301 943.039062,494.143372 943.039062,632.623108 
	C945.682251,632.623108 947.657959,632.623230 949.633667,632.623108 
	C1006.630249,632.618835 1063.628784,632.869873 1120.621948,632.425537 
	C1134.351196,632.318481 1148.265869,630.961975 1161.744385,628.361633 
	C1204.843506,620.046448 1242.383179,600.240540 1272.970215,568.873596 
	C1320.249756,520.388428 1339.656128,462.008636 1331.058228,394.636993 
	C1326.175293,356.376251 1310.567993,322.746674 1286.353149,292.971558 
	C1264.988770,266.701447 1238.476807,247.090149 1207.760010,233.117752 
	C1185.204468,222.857681 1161.705933,216.054916 1136.129639,214.556412 
	C1132.145020,214.375626 1128.160400,214.040024 1124.175659,214.037277 
	C1065.621338,213.996933 1007.067017,214.000916 948.512695,213.994553 
	C947.348267,213.994431 945.951111,213.599380 945.083374,214.107437 
	C944.173584,214.640106 943.771729,216.040329 943.039062,217.985214 
M38.073467,491.412262 
	C40.159828,500.977600 41.931015,510.624664 44.386276,520.094360 
	C55.946438,564.680725 74.567177,606.111572 100.420334,644.266602 
	C127.662651,684.471863 161.010696,718.732971 200.563965,746.904846 
	C231.030136,768.604492 263.902893,785.720154 299.176147,798.231140 
	C332.249481,809.961792 366.263763,817.276917 401.241180,819.901672 
	C425.523926,821.723816 449.778534,821.492432 474.077393,819.117126 
	C504.161682,816.176270 533.487305,809.951599 562.046814,800.291748 
	C615.790588,782.113708 663.629456,753.797241 705.412048,715.369690 
	C750.843506,673.586121 785.042053,623.997498 807.629150,566.574524 
	C827.768005,515.375488 836.857300,462.228851 835.109009,407.136017 
	C834.335938,382.774048 831.714172,358.699585 826.609375,334.949585 
	C814.611328,279.129181 791.756897,228.065125 757.971619,181.990768 
	C739.014221,156.137711 717.206787,132.949249 692.726624,112.193298 
	C668.128967,91.337715 641.463562,73.647530 612.617065,59.389374 
	C566.286926,36.489426 517.386292,22.879635 465.704468,18.808353 
	C431.457672,16.110537 397.542572,17.715244 363.805725,23.410357 
	C332.965973,28.616417 303.163849,37.650032 274.464203,50.124992 
	C219.973145,73.810799 172.932098,107.784729 133.347000,152.166519 
	C103.855499,185.231628 80.449081,222.112213 63.244053,262.872437 
	C43.729996,309.102905 33.191410,357.320251 31.940189,407.571625 
	C31.245871,435.456848 32.999966,463.107605 38.073467,491.412262 
M1518.504517,439.142639 
	C1513.557983,439.142639 1508.611450,439.142639 1503.416992,439.142639 
	C1503.416992,466.655212 1503.416992,493.561584 1503.416992,520.729492 
	C1559.614258,520.729492 1615.547363,520.729492 1672.350098,520.729492 
	C1674.166870,511.980652 1676.699463,503.170685 1677.745239,494.187683 
	C1683.673340,443.259796 1668.280640,398.966156 1631.881714,363.527191 
	C1586.953247,319.783813 1532.180298,307.314484 1472.366577,323.718842 
	C1391.280029,345.957428 1341.016846,427.457245 1361.180542,510.834137 
	C1375.633667,570.597717 1414.585449,608.746765 1472.608032,626.163147 
	C1515.718994,639.103577 1558.180420,633.722046 1598.269897,612.680908 
	C1610.048340,606.498901 1620.824951,598.841919 1630.815430,589.254395 
	C1613.921875,570.945190 1597.286011,552.915283 1580.636597,534.870789 
	C1547.953613,566.974060 1500.925171,566.441956 1470.761353,547.164429 
	C1437.811646,526.106567 1422.855225,488.276672 1433.075928,451.643158 
	C1442.888916,416.471222 1477.858276,389.797424 1516.302490,389.089417 
	C1554.342529,388.388824 1585.398438,411.620270 1597.010498,439.143616 
	C1571.000732,439.143616 1545.251709,439.143616 1518.504517,439.142639 
z"/>
<path fill="#E61984" opacity="1.000000" stroke="none" 
	d="
M38.041122,490.980286 
	C32.999966,463.107605 31.245871,435.456848 31.940189,407.571625 
	C33.191410,357.320251 43.729996,309.102905 63.244053,262.872437 
	C80.449081,222.112213 103.855499,185.231628 133.347000,152.166519 
	C172.932098,107.784729 219.973145,73.810799 274.464203,50.124992 
	C303.163849,37.650032 332.965973,28.616417 363.805725,23.410357 
	C397.542572,17.715244 431.457672,16.110537 465.704468,18.808353 
	C517.386292,22.879635 566.286926,36.489426 612.617065,59.389374 
	C641.463562,73.647530 668.128967,91.337715 692.726624,112.193298 
	C717.206787,132.949249 739.014221,156.137711 757.971619,181.990768 
	C791.756897,228.065125 814.611328,279.129181 826.609375,334.949585 
	C831.714172,358.699585 834.335938,382.774048 835.109009,407.136017 
	C836.857300,462.228851 827.768005,515.375488 807.629150,566.574524 
	C785.042053,623.997498 750.843506,673.586121 705.412048,715.369690 
	C663.629456,753.797241 615.790588,782.113708 562.046814,800.291748 
	C533.487305,809.951599 504.161682,816.176270 474.077393,819.117126 
	C449.778534,821.492432 425.523926,821.723816 401.241180,819.901672 
	C366.263763,817.276917 332.249481,809.961792 299.176147,798.231140 
	C263.902893,785.720154 231.030136,768.604492 200.563965,746.904846 
	C161.010696,718.732971 127.662651,684.471863 100.420334,644.266602 
	C74.567177,606.111572 55.946438,564.680725 44.386276,520.094360 
	C41.931015,510.624664 40.159828,500.977600 38.041122,490.980286 
M370.914917,572.892090 
	C370.954956,571.893921 371.030121,570.895813 371.030060,569.897644 
	C371.025513,485.241516 371.015137,400.585358 371.005219,315.929230 
	C371.004974,313.680450 371.005188,311.431641 371.005188,309.234833 
	C390.284760,309.234833 408.784149,308.818787 427.252350,309.397186 
	C437.655457,309.723022 448.223663,310.746002 458.346100,313.071625 
	C514.318970,325.931427 544.939880,377.476776 538.418701,432.333862 
	C534.520142,465.128815 518.878296,492.707520 497.830383,517.431519 
	C474.870056,544.401855 446.408173,564.426758 415.574341,581.309143 
	C380.606415,600.455017 343.431458,614.079468 305.134766,624.717346 
	C293.016296,628.083557 280.585785,630.326355 267.463135,633.002441 
	C266.117126,633.137695 264.771118,633.272888 263.425140,633.408142 
	C263.320435,633.920593 263.215729,634.433044 263.111023,634.945496 
	C264.742371,635.634460 266.328491,636.736328 268.015106,636.921082 
	C270.972229,637.245117 273.990997,637.005005 276.983948,637.004456 
	C335.846313,636.992981 394.708679,636.999023 453.570831,636.890686 
	C455.388000,636.887329 457.203003,635.698853 459.892700,634.917114 
	C462.289124,634.546753 464.721252,634.329468 467.076111,633.780640 
	C480.563171,630.637634 494.405212,628.503723 507.441254,624.029724 
	C559.555176,606.144409 599.566589,572.936157 626.493042,524.967102 
	C655.151184,473.912903 661.601562,419.350433 646.489807,362.918915 
	C632.065002,309.052582 600.606750,266.971161 553.627136,236.812668 
	C518.666199,214.369614 480.186615,203.261688 438.684875,203.036224 
	C397.533569,202.812637 356.380066,202.969376 315.227539,202.993790 
	C289.904602,203.008804 264.581726,203.088486 238.585449,203.064774 
	C238.013351,203.278915 236.928848,203.553177 236.945862,203.698227 
	C237.208084,205.933746 237.932602,208.151733 237.937622,210.375168 
	C238.007568,241.329666 237.967102,272.284393 238.022522,303.238953 
	C238.025925,305.142456 238.605209,307.044922 239.144150,309.313538 
	C239.144150,309.313538 239.195923,309.741089 239.113708,310.495575 
	C240.167221,311.200714 241.259430,312.550476 242.267029,312.490051 
	C245.284897,312.308960 248.256012,311.295258 251.271744,311.148651 
	C253.667450,311.032227 256.101929,311.713226 259.986176,312.238617 
	C259.986176,316.821625 259.985535,321.975006 259.986267,327.128357 
	C259.997833,407.348358 260.003998,487.568390 260.058136,567.788391 
	C260.059296,569.526733 260.610748,571.264709 261.158264,573.341553 
	C261.158264,573.341553 261.249573,573.754272 261.564575,574.510193 
	C262.364044,574.675232 263.163361,574.983887 263.962982,574.984680 
	C298.422791,575.016479 332.882690,575.032715 367.342407,574.976624 
	C368.481598,574.974731 369.619507,574.203979 370.914917,572.892090 
z"/>
<path fill="#E61984" opacity="1.000000" stroke="none" 
	d="
M1136.773438,214.984894 
	C1161.705933,216.054916 1185.204468,222.857681 1207.760010,233.117752 
	C1238.476807,247.090149 1264.988770,266.701447 1286.353149,292.971558 
	C1310.567993,322.746674 1326.175293,356.376251 1331.058228,394.636993 
	C1339.656128,462.008636 1320.249756,520.388428 1272.970215,568.873596 
	C1242.383179,600.240540 1204.843506,620.046448 1161.744385,628.361633 
	C1148.265869,630.961975 1134.351196,632.318481 1120.621948,632.425537 
	C1063.628784,632.869873 1006.630249,632.618835 949.633667,632.623108 
	C947.657959,632.623230 945.682251,632.623108 943.039062,632.623108 
	C943.039062,494.143372 943.039062,356.064301 943.386841,217.268341 
	C945.696472,216.049469 947.657715,215.111725 949.620422,215.108658 
	C1012.004700,215.011566 1074.389038,215.005081 1136.773438,214.984894 
M1025.618042,562.597046 
	C1026.592041,562.737610 1027.566162,563.000671 1028.540161,563.000854 
	C1062.170898,563.007324 1095.801514,562.989441 1129.432251,562.967773 
	C1129.919312,562.967407 1130.406372,562.873657 1132.249634,562.683777 
	C1130.366821,562.120117 1129.914429,561.984680 1130.184326,561.354980 
	C1134.144043,560.924072 1138.133301,560.674438 1142.058838,560.033569 
	C1172.973389,554.986877 1199.006714,540.768555 1218.751587,516.532410 
	C1249.063965,479.325012 1257.964722,436.500183 1247.916260,390.015625 
	C1234.554321,328.202209 1182.479248,284.068695 1115.707642,284.925964 
	C1087.219360,285.291748 1058.722412,284.989136 1030.229492,284.990234 
	C1028.475342,284.990295 1026.721191,284.990234 1024.391479,284.990234 
	C1024.391479,288.322815 1024.391479,290.973083 1024.391479,293.623352 
	C1024.391357,381.101807 1024.385742,468.580261 1024.424805,556.058716 
	C1024.425659,558.004028 1024.932739,559.949158 1025.618042,562.597046 
z"/>
<path fill="#E51984" opacity="1.000000" stroke="none" 
	d="
M1715.182007,629.928223 
	C1715.126343,626.765991 1715.022339,623.603821 1715.021851,620.441589 
	C1715.014771,567.118042 1713.949219,513.766846 1715.326416,460.478851 
	C1716.692505,407.617401 1741.143921,367.529205 1788.504272,342.696838 
	C1818.432007,327.004883 1850.355591,322.569458 1883.860962,326.850525 
	C1910.137695,330.207977 1934.300049,338.324432 1955.342285,354.682007 
	C1960.180298,358.442932 1964.562256,362.790405 1968.214966,366.033905 
	C1979.918823,358.277039 1990.934692,350.004730 2002.836548,343.307129 
	C2022.558105,332.209137 2044.330200,327.484863 2066.749023,325.817810 
	C2100.111084,323.337006 2131.720703,329.332458 2160.370850,347.139832 
	C2190.079834,365.605347 2207.511230,393.039154 2214.654053,426.796021 
	C2217.453125,440.023590 2218.671143,453.800171 2218.789551,467.342651 
	C2219.254639,520.495483 2218.994385,573.654663 2219.003418,626.811462 
	C2219.003662,628.591003 2219.003418,630.370605 2219.003418,632.280579 
	C2194.517334,632.280579 2170.617188,632.280579 2146.186523,632.280579 
	C2146.186523,629.478882 2146.187500,627.022827 2146.186279,624.566772 
	C2146.160645,571.243958 2146.445312,517.918396 2145.971680,464.599518 
	C2145.752441,439.911560 2133.733398,420.959808 2113.128662,407.968933 
	C2083.894531,389.537323 2046.103027,394.328430 2022.232300,419.230286 
	C2008.942749,433.093964 2003.437378,450.092255 2003.509888,469.275208 
	C2003.705566,521.098267 2003.590210,572.922607 2003.568359,624.746399 
	C2003.564697,633.436462 2004.610474,632.603821 1995.955688,632.613708 
	C1976.125977,632.636353 1956.294189,632.455811 1936.468262,632.728699 
	C1931.670654,632.794678 1930.293945,631.551208 1930.311035,626.675598 
	C1930.493042,574.519287 1929.783447,522.351135 1930.667236,470.209015 
	C1931.296021,433.104218 1905.030396,400.884186 1865.322998,397.248840 
	C1827.490967,393.785217 1794.086304,418.667847 1788.043823,457.062561 
	C1787.308350,460.071716 1786.975342,462.536469 1786.973877,465.001434 
	C1786.943970,516.949463 1786.951538,568.897522 1786.951050,620.845581 
	C1786.951050,622.344055 1786.971313,623.843262 1786.932739,625.340881 
	C1786.833008,629.218628 1785.487183,631.190979 1780.945557,631.134277 
	C1761.135132,630.886475 1741.319824,631.058289 1721.506714,630.975891 
	C1719.396973,630.967102 1717.290161,630.293396 1715.182007,629.928223 
z"/>
<path fill="#E51A84" opacity="1.000000" stroke="none" 
	d="
M3041.118896,438.445862 
	C3041.118896,438.445862 3041.138184,438.735138 3040.675537,438.917908 
	C3036.034668,446.413574 3034.045410,454.362640 3034.033447,462.703583 
	C3033.958008,515.359192 3033.992920,568.014954 3033.985352,620.670654 
	C3033.985107,622.335266 3034.036621,624.012817 3033.856934,625.661804 
	C3033.450684,629.389709 3032.054199,631.232666 3027.532959,631.130432 
	C3011.044922,630.757568 2994.543213,631.009155 2978.046631,630.967041 
	C2972.646484,630.953247 2966.851318,632.248962 2962.833984,626.938416 
	C2962.769287,626.527283 2962.704590,626.116150 2963.061035,625.123657 
	C2963.657959,623.245361 2963.987061,621.948486 2963.987549,620.651550 
	C2964.009766,566.926147 2964.139648,513.199951 2963.805664,459.476624 
	C2963.768799,453.563202 2961.079346,447.659637 2959.516357,441.779175 
	C2959.424072,441.432098 2958.398682,441.333099 2957.807373,441.118683 
	C2957.807373,441.118683 2957.887695,441.047729 2957.904297,440.784668 
	C2957.614990,440.014130 2957.308838,439.506622 2957.002686,438.999146 
	C2948.984131,423.525787 2937.728760,411.466614 2921.750732,403.784790 
	C2881.006348,384.195526 2831.570068,407.315308 2821.562256,451.083069 
	C2820.241455,456.858246 2819.897217,462.961182 2819.882812,468.914185 
	C2819.756592,521.405518 2819.807617,573.897217 2819.806152,626.388855 
	C2819.806152,628.195129 2819.806152,630.001404 2819.806152,632.216553 
	C2795.492676,632.216553 2771.591064,632.216553 2746.999756,632.216553 
	C2746.999756,630.321411 2746.999512,628.393250 2746.999756,626.465088 
	C2747.005371,571.307251 2746.100830,516.130005 2747.281738,460.997314 
	C2748.377930,409.822723 2771.257324,370.351074 2816.483887,344.918457 
	C2847.443604,327.508881 2880.616943,322.474915 2915.700195,326.852875 
	C2939.734375,329.852081 2962.122559,336.856049 2982.000000,350.832123 
	C2988.743164,355.573425 2994.815674,361.268311 3001.048828,366.407104 
	C3008.347900,360.905670 3015.446533,354.878540 3023.192871,349.848450 
	C3043.164551,336.879700 3065.287354,330.050690 3088.860596,326.849487 
	C3113.563232,323.494873 3137.678467,325.382935 3161.262939,332.924347 
	C3204.590820,346.778931 3232.551025,375.769562 3244.942383,419.618317 
	C3249.358643,435.245331 3251.102539,451.176697 3251.049805,467.430939 
	C3250.877441,520.588501 3250.993896,573.747070 3250.999268,626.905212 
	C3250.999512,628.561218 3250.999268,630.217224 3250.999268,632.246216 
	C3226.655273,632.246216 3202.616699,632.246216 3178.041992,632.246216 
	C3178.041992,630.273315 3178.041992,628.487244 3178.041992,626.701111 
	C3178.038818,573.876221 3178.035400,521.051331 3178.032227,468.226440 
	C3178.030273,437.251434 3160.316895,411.849213 3131.350586,401.282745 
	C3101.756104,390.487183 3068.806396,399.932648 3049.427979,424.806732 
	C3048.002197,426.636871 3046.817627,428.654572 3044.891602,430.834778 
	C3043.214600,433.538330 3042.166748,435.992065 3041.118896,438.445862 
z"/>
<path fill="#E51A84" opacity="1.000000" stroke="none" 
	d="
M1519.003662,439.143127 
	C1545.251709,439.143616 1571.000732,439.143616 1597.010498,439.143616 
	C1585.398438,411.620270 1554.342529,388.388824 1516.302490,389.089417 
	C1477.858276,389.797424 1442.888916,416.471222 1433.075928,451.643158 
	C1422.855225,488.276672 1437.811646,526.106567 1470.761353,547.164429 
	C1500.925171,566.441956 1547.953613,566.974060 1580.636597,534.870789 
	C1597.286011,552.915283 1613.921875,570.945190 1630.815430,589.254395 
	C1620.824951,598.841919 1610.048340,606.498901 1598.269897,612.680908 
	C1558.180420,633.722046 1515.718994,639.103577 1472.608032,626.163147 
	C1414.585449,608.746765 1375.633667,570.597717 1361.180542,510.834137 
	C1341.016846,427.457245 1391.280029,345.957428 1472.366577,323.718842 
	C1532.180298,307.314484 1586.953247,319.783813 1631.881714,363.527191 
	C1668.280640,398.966156 1683.673340,443.259796 1677.745239,494.187683 
	C1676.699463,503.170685 1674.166870,511.980652 1672.350098,520.729492 
	C1615.547363,520.729492 1559.614258,520.729492 1503.416992,520.729492 
	C1503.416992,493.561584 1503.416992,466.655212 1503.416992,439.142639 
	C1508.611450,439.142639 1513.557983,439.142639 1519.003662,439.143127 
z"/>
<path fill="#E51A84" opacity="1.000000" stroke="none" 
	d="
M3535.908936,465.076477 
	C3534.269531,457.478485 3533.188721,449.707184 3530.894775,442.312317 
	C3520.680664,409.384094 3491.657959,385.781525 3457.876465,383.057831 
	C3419.752197,379.983978 3391.812500,396.859039 3373.321533,429.178864 
	C3354.223389,462.559235 3356.047607,496.417053 3377.196045,528.088928 
	C3393.690918,552.791809 3417.288818,566.874817 3448.008301,567.067139 
	C3460.114014,567.142883 3471.799561,565.207947 3483.808105,561.213806 
	C3491.862793,580.986511 3499.913086,600.748718 3508.451660,621.709290 
	C3497.833008,624.497559 3487.800781,628.036926 3477.466797,629.695862 
	C3418.294189,639.194763 3367.667969,622.794861 3326.910889,578.313171 
	C3306.889648,556.462341 3294.515137,530.553955 3289.735840,501.370544 
	C3283.437256,462.909637 3289.559326,426.489044 3310.478271,393.222778 
	C3336.359619,352.065613 3373.803467,326.819519 3421.493652,319.620758 
	C3485.583984,309.946411 3538.960693,330.943298 3578.582764,382.892700 
	C3598.974121,409.628357 3609.086182,440.456299 3609.013916,474.394104 
	C3608.911865,522.382874 3608.989502,570.372131 3608.990479,618.361145 
	C3608.990479,620.342285 3608.990479,622.323425 3608.990479,624.962769 
	C3585.480469,624.962769 3562.228516,624.962769 3538.446777,624.495850 
	C3537.633789,621.739807 3537.105713,619.451050 3537.102539,617.161621 
	C3537.038330,568.331421 3537.045166,519.501160 3536.969482,470.670959 
	C3536.966553,468.805603 3536.278076,466.941284 3535.908936,465.076477 
z"/>
<path fill="#E51A84" opacity="1.000000" stroke="none" 
	d="
M2503.939453,465.040283 
	C2501.163086,454.506195 2499.633057,443.435364 2495.372803,433.540192 
	C2483.313232,405.531555 2461.489014,389.068298 2431.440674,383.938782 
	C2382.337402,375.556396 2345.467773,408.689514 2333.136963,447.628815 
	C2319.034180,492.163788 2339.894531,539.375061 2381.682617,559.584167 
	C2398.475098,567.705200 2416.212891,568.658386 2434.302002,565.627319 
	C2440.009277,564.671082 2445.610840,563.085754 2452.029053,561.611877 
	C2459.901123,580.944702 2467.938721,600.683350 2476.392090,621.443848 
	C2467.867920,623.925293 2459.922852,626.770752 2451.743408,628.525757 
	C2418.878662,635.577393 2386.511719,633.826538 2355.303955,620.864746 
	C2306.282227,600.504089 2273.055420,564.893677 2260.568604,513.299438 
	C2245.773438,452.166046 2262.222656,399.148346 2309.731934,356.905090 
	C2332.361328,336.784149 2358.979248,324.307281 2388.830811,319.468658 
	C2464.272217,307.240509 2535.640869,345.960236 2565.003906,415.163818 
	C2573.302734,434.723267 2577.141846,455.026184 2577.049316,476.273132 
	C2576.842041,523.764465 2576.980957,571.257263 2576.978760,618.749451 
	C2576.978760,620.572693 2576.978760,622.395935 2576.978760,624.964294 
	C2553.200195,624.964294 2529.622803,624.964294 2505.566406,624.442688 
	C2505.066162,572.828491 2505.056641,521.735962 2504.978516,470.643433 
	C2504.975586,468.775208 2504.301025,466.907990 2503.939453,465.040283 
z"/>
<path fill="#E61984" opacity="1.000000" stroke="none" 
	d="
M2625.790039,629.647644 
	C2625.714111,628.918945 2625.638428,628.190308 2625.749268,626.586548 
	C2625.917969,491.255493 2625.896729,356.799530 2625.914795,222.343567 
	C2625.915283,219.954498 2626.392578,217.565475 2626.661865,215.043198 
	C2649.397461,215.043198 2671.547852,215.077057 2693.698242,215.007599 
	C2697.116455,214.996887 2698.014648,216.965057 2698.084473,219.736893 
	C2698.172363,223.233109 2698.077637,226.733704 2698.077637,230.232407 
	C2698.077637,363.855347 2698.079834,497.478271 2698.081787,631.101196 
	C2698.081787,631.101196 2698.146484,631.072815 2697.675781,631.064087 
	C2673.413574,631.094177 2649.622070,631.133118 2625.830322,631.171997 
	C2625.830322,631.171997 2625.849365,631.141235 2625.865723,630.933655 
	C2625.851074,630.366577 2625.820557,630.007141 2625.790039,629.647644 
z"/>
<path fill="#8F4674" opacity="1.000000" stroke="none" 
	d="
M2698.260742,630.729614 
	C2698.079834,497.478271 2698.077637,363.855347 2698.077637,230.232407 
	C2698.077637,226.733704 2698.172363,223.233109 2698.084473,219.736893 
	C2698.014648,216.965057 2697.116455,214.996887 2693.698242,215.007599 
	C2671.547852,215.077057 2649.397461,215.043198 2626.661865,215.043198 
	C2626.392578,217.565475 2625.915283,219.954498 2625.914795,222.343567 
	C2625.896729,356.799530 2625.917969,491.255493 2625.870850,626.046875 
	C2625.687256,624.567444 2625.464600,622.752563 2625.464600,620.937683 
	C2625.450928,487.106201 2625.455322,353.274719 2625.458008,219.443222 
	C2625.458008,217.803802 2625.458008,216.164368 2625.458008,214.268051 
	C2649.821045,214.268051 2673.755371,214.268051 2698.249023,214.268051 
	C2698.349365,215.725449 2698.552002,217.298126 2698.552246,218.870834 
	C2698.563477,355.202179 2698.559326,491.533508 2698.550781,627.864868 
	C2698.550781,628.695923 2698.478271,629.527039 2698.260742,630.729614 
z"/>
<path fill="#C82C7D" opacity="1.000000" stroke="none" 
	d="
M2962.673096,627.259766 
	C2966.851318,632.248962 2972.646484,630.953247 2978.046631,630.967041 
	C2994.543213,631.009155 3011.044922,630.757568 3027.532959,631.130432 
	C3032.054199,631.232666 3033.450684,629.389709 3033.856934,625.661804 
	C3034.036621,624.012817 3033.985107,622.335266 3033.985352,620.670654 
	C3033.992920,568.014954 3033.958008,515.359192 3034.033447,462.703583 
	C3034.045410,454.362640 3036.034668,446.413574 3040.566895,439.013977 
	C3036.704346,449.612122 3035.514160,460.720551 3035.545898,472.154999 
	C3035.688721,523.780029 3035.554932,575.405823 3035.694336,627.030945 
	C3035.705811,631.296509 3034.793457,632.788208 3030.227295,632.735657 
	C3009.246826,632.494019 2988.260986,632.527161 2967.279785,632.730347 
	C2963.173828,632.770142 2961.760742,631.472778 2962.673096,627.259766 
z"/>
<path fill="#C82C7D" opacity="1.000000" stroke="none" 
	d="
M2957.847656,441.504242 
	C2958.398682,441.333099 2959.424072,441.432098 2959.516357,441.779175 
	C2961.079346,447.659637 2963.768799,453.563202 2963.805664,459.476624 
	C2964.139648,513.199951 2964.009766,566.926147 2963.987549,620.651550 
	C2963.987061,621.948486 2963.657959,623.245361 2963.151367,624.821533 
	C2962.679199,623.124817 2962.415771,621.148804 2962.414551,619.172668 
	C2962.388672,569.362549 2962.370605,519.552429 2962.403809,469.742340 
	C2962.409912,460.195587 2961.402100,450.848572 2957.847656,441.504242 
z"/>
<path fill="#A63877" opacity="1.000000" stroke="none" 
	d="
M1715.107178,630.255493 
	C1717.290161,630.293396 1719.396973,630.967102 1721.506714,630.975891 
	C1741.319824,631.058289 1761.135132,630.886475 1780.945557,631.134277 
	C1785.487183,631.190979 1786.833008,629.218628 1786.932739,625.340881 
	C1786.971313,623.843262 1786.951050,622.344055 1786.951050,620.845581 
	C1786.951538,568.897522 1786.943970,516.949463 1786.973877,465.001434 
	C1786.975342,462.536469 1787.308350,460.071716 1787.837402,457.392883 
	C1788.125977,513.512085 1788.064575,569.845215 1787.999878,626.178406 
	C1787.998047,627.839722 1787.961792,629.500977 1787.393311,631.600708 
	C1762.934326,631.998535 1739.023560,631.957947 1715.112915,631.917419 
	C1715.086060,631.472534 1715.059204,631.027649 1715.107178,630.255493 
z"/>
<path fill="#8F4674" opacity="1.000000" stroke="none" 
	d="
M1136.451538,214.770660 
	C1074.389038,215.005081 1012.004700,215.011566 949.620422,215.108658 
	C947.657715,215.111725 945.696472,216.049469 943.441162,216.806458 
	C943.771729,216.040329 944.173584,214.640106 945.083374,214.107437 
	C945.951111,213.599380 947.348267,213.994431 948.512695,213.994553 
	C1007.067017,214.000916 1065.621338,213.996933 1124.175659,214.037277 
	C1128.160400,214.040024 1132.145020,214.375626 1136.451538,214.770660 
z"/>
<path fill="#A03C79" opacity="1.000000" stroke="none" 
	d="
M3535.859375,465.536377 
	C3536.278076,466.941284 3536.966553,468.805603 3536.969482,470.670959 
	C3537.045166,519.501160 3537.038330,568.331421 3537.102539,617.161621 
	C3537.105713,619.451050 3537.633789,621.739807 3537.985352,624.432007 
	C3537.381836,624.379700 3536.242432,624.017212 3536.129639,623.450500 
	C3535.842285,622.005615 3536.002686,620.469604 3536.002686,618.970032 
	C3536.003906,572.142761 3536.012207,525.315552 3536.001709,478.488281 
	C3536.000732,474.324280 3535.876709,470.160309 3535.859375,465.536377 
z"/>
<path fill="#A43C78" opacity="1.000000" stroke="none" 
	d="
M2503.930176,465.505493 
	C2504.301025,466.907990 2504.975586,468.775208 2504.978516,470.643433 
	C2505.056641,521.735962 2505.066162,572.828491 2505.110107,624.378479 
	C2504.755371,623.068726 2504.050537,621.302185 2504.047607,619.534485 
	C2503.962402,568.346558 2503.947510,517.158630 2503.930176,465.505493 
z"/>
<path fill="#8F4674" opacity="1.000000" stroke="none" 
	d="
M2625.950684,631.545044 
	C2649.622070,631.133118 2673.413574,631.094177 2697.687012,631.097534 
	C2697.089355,631.611328 2696.011475,632.490540 2694.930176,632.494385 
	C2672.742188,632.573547 2650.554199,632.559265 2628.365967,632.525452 
	C2627.600830,632.524292 2626.836182,632.129333 2625.950684,631.545044 
z"/>
<path fill="#FF81C8" opacity="1.000000" stroke="none" 
	d="
M1715.308838,632.292358 
	C1739.023560,631.957947 1762.934326,631.998535 1787.288086,632.064575 
	C1786.688232,632.389832 1785.645630,632.948853 1784.601807,632.951294 
	C1762.217163,633.004761 1739.832520,632.998718 1717.447754,632.985168 
	C1716.800049,632.984802 1716.152344,632.777832 1715.308838,632.292358 
z"/>
<path fill="#C82C7D" opacity="1.000000" stroke="none" 
	d="
M3041.387939,438.208740 
	C3042.166748,435.992065 3043.214600,433.538330 3044.616943,431.027283 
	C3043.866455,433.303864 3042.761719,435.637756 3041.387939,438.208740 
z"/>
<path fill="#8F4674" opacity="1.000000" stroke="none" 
	d="
M2625.669434,629.802856 
	C2625.820557,630.007141 2625.851074,630.366577 2625.871826,630.916809 
	C2625.757568,630.724365 2625.653320,630.341187 2625.669434,629.802856 
z"/>
<path fill="#C82C7D" opacity="1.000000" stroke="none" 
	d="
M2957.013916,439.310242 
	C2957.308838,439.506622 2957.614990,440.014130 2957.899658,440.838043 
	C2957.593750,440.643433 2957.309570,440.132416 2957.013916,439.310242 
z"/>
<path fill="#FFFFFF" opacity="1.000000" stroke="none" 
	d="
M239.195923,309.741089 
	C239.195923,309.741089 239.144150,309.313538 239.072357,308.668823 
	C239.000046,284.046478 238.973145,260.068817 239.010788,236.091248 
	C239.028030,225.107117 239.172195,214.123169 239.258820,203.139145 
	C264.581726,203.088486 289.904602,203.008804 315.227539,202.993790 
	C356.380066,202.969376 397.533569,202.812637 438.684875,203.036224 
	C480.186615,203.261688 518.666199,214.369614 553.627136,236.812668 
	C600.606750,266.971161 632.065002,309.052582 646.489807,362.918915 
	C661.601562,419.350433 655.151184,473.912903 626.493042,524.967102 
	C599.566589,572.936157 559.555176,606.144409 507.441254,624.029724 
	C494.405212,628.503723 480.563171,630.637634 467.076111,633.780640 
	C464.721252,634.329468 462.289124,634.546753 458.985779,634.961426 
	C393.966309,635.005737 329.853760,635.005737 264.638733,635.005737 
	C266.590179,633.980530 267.444122,633.531921 268.298065,633.083313 
	C280.585785,630.326355 293.016296,628.083557 305.134766,624.717346 
	C343.431458,614.079468 380.606415,600.455017 415.574341,581.309143 
	C446.408173,564.426758 474.870056,544.401855 497.830383,517.431519 
	C518.878296,492.707520 534.520142,465.128815 538.418701,432.333862 
	C544.939880,377.476776 514.318970,325.931427 458.346100,313.071625 
	C448.223663,310.746002 437.655457,309.723022 427.252350,309.397186 
	C408.784149,308.818787 390.284760,309.234833 371.005188,309.234833 
	C371.005188,311.431641 371.004974,313.680450 371.005219,315.929230 
	C371.015137,400.585358 371.025513,485.241516 371.030060,569.897644 
	C371.030121,570.895813 370.954956,571.893921 370.391602,573.343872 
	C333.662048,573.781799 297.455811,573.768066 261.249573,573.754272 
	C261.249573,573.754272 261.158264,573.341553 261.075439,572.703979 
	C260.992584,484.841797 260.992584,397.617249 260.992584,309.741089 
	C253.395584,309.741089 246.295761,309.741089 239.195923,309.741089 
z"/>
<path fill="#B13879" opacity="1.000000" stroke="none" 
	d="
M267.880615,633.042847 
	C267.444122,633.531921 266.590179,633.980530 264.638733,635.005737 
	C329.853760,635.005737 393.966309,635.005737 458.548920,635.034302 
	C457.203003,635.698853 455.388000,636.887329 453.570831,636.890686 
	C394.708679,636.999023 335.846313,636.992981 276.983948,637.004456 
	C273.990997,637.005005 270.972229,637.245117 268.015106,636.921082 
	C266.328491,636.736328 264.742371,635.634460 263.111023,634.945496 
	C263.215729,634.433044 263.320435,633.920593 263.425140,633.408142 
	C264.771118,633.272888 266.117126,633.137695 267.880615,633.042847 
z"/>
<path fill="#B62D79" opacity="1.000000" stroke="none" 
	d="
M239.154816,310.118347 
	C246.295761,309.741089 253.395584,309.741089 260.992584,309.741089 
	C260.992584,397.617249 260.992584,484.841797 260.949036,572.534607 
	C260.610748,571.264709 260.059296,569.526733 260.058136,567.788391 
	C260.003998,487.568390 259.997833,407.348358 259.986267,327.128357 
	C259.985535,321.975006 259.986176,316.821625 259.986176,312.238617 
	C256.101929,311.713226 253.667450,311.032227 251.271744,311.148651 
	C248.256012,311.295258 245.284897,312.308960 242.267029,312.490051 
	C241.259430,312.550476 240.167221,311.200714 239.154816,310.118347 
z"/>
<path fill="#9D3E76" opacity="1.000000" stroke="none" 
	d="
M261.407074,574.132202 
	C297.455811,573.768066 333.662048,573.781799 370.313171,573.793579 
	C369.619507,574.203979 368.481598,574.974731 367.342407,574.976624 
	C332.882690,575.032715 298.422791,575.016479 263.962982,574.984680 
	C263.163361,574.983887 262.364044,574.675232 261.407074,574.132202 
z"/>
<path fill="#C22A76" opacity="1.000000" stroke="none" 
	d="
M238.922134,203.101959 
	C239.172195,214.123169 239.028030,225.107117 239.010788,236.091248 
	C238.973145,260.068817 239.000046,284.046478 238.958557,308.485992 
	C238.605209,307.044922 238.025925,305.142456 238.022522,303.238953 
	C237.967102,272.284393 238.007568,241.329666 237.937622,210.375168 
	C237.932602,208.151733 237.208084,205.933746 236.945862,203.698227 
	C236.928848,203.553177 238.013351,203.278915 238.922134,203.101959 
z"/>
<path fill="#FFFEFF" opacity="1.000000" stroke="none" 
	d="
M1025.203735,561.894348 
	C1024.932739,559.949158 1024.425659,558.004028 1024.424805,556.058716 
	C1024.385742,468.580261 1024.391357,381.101807 1024.391479,293.623352 
	C1024.391479,290.973083 1024.391479,288.322815 1024.391479,284.990234 
	C1026.721191,284.990234 1028.475342,284.990295 1030.229492,284.990234 
	C1058.722412,284.989136 1087.219360,285.291748 1115.707642,284.925964 
	C1182.479248,284.068695 1234.554321,328.202209 1247.916260,390.015625 
	C1257.964722,436.500183 1249.063965,479.325012 1218.751587,516.532410 
	C1199.006714,540.768555 1172.973389,554.986877 1142.058838,560.033569 
	C1138.133301,560.674438 1134.144043,560.924072 1129.411377,561.501831 
	C1122.476929,561.697510 1116.315308,561.779541 1110.153687,561.789551 
	C1081.837036,561.835510 1053.520386,561.861328 1025.203735,561.894348 
z"/>
<path fill="#A63877" opacity="1.000000" stroke="none" 
	d="
M1025.410889,562.245728 
	C1053.520386,561.861328 1081.837036,561.835510 1110.153687,561.789551 
	C1116.315308,561.779541 1122.476929,561.697510 1129.050293,561.748901 
	C1129.914429,561.984680 1130.366821,562.120117 1132.249634,562.683777 
	C1130.406372,562.873657 1129.919312,562.967407 1129.432251,562.967773 
	C1095.801514,562.989441 1062.170898,563.007324 1028.540161,563.000854 
	C1027.566162,563.000671 1026.592041,562.737610 1025.410889,562.245728 
z"/>
</svg>