<svg version="1.1" id="Layer_1" xmlns="http://www.w3.org/2000/svg" xmlns:xlink="http://www.w3.org/1999/xlink" x="0px" y="0px"
	 width="100%" viewBox="0 0 3664 840" enable-background="new 0 0 3664 840" xml:space="preserve">
<path fill="#E71884" opacity="1.000000" stroke="none" 
	d="
M2671.000000,841.000000 
	C1780.666626,841.000000 890.833313,841.000000 1.000000,841.000000 
	C1.000000,561.000000 1.000000,281.000000 1.000000,1.000000 
	C1222.333374,1.000000 2443.666748,1.000000 3665.000000,1.000000 
	C3665.000000,281.000000 3665.000000,561.000000 3665.000000,841.000000 
	C3333.833252,841.000000 3002.666748,841.000000 2671.000000,841.000000 
M642.361572,76.154732 
	C616.201843,59.865181 588.238281,47.656517 559.038025,37.825176 
	C529.973877,28.039661 500.206390,21.790480 469.820129,19.252766 
	C444.159821,17.109734 418.290497,16.526934 392.625519,20.143276 
	C375.483246,22.558729 358.260529,24.829617 341.380554,28.554993 
	C326.046814,31.939116 310.734253,36.191910 296.122925,41.885399 
	C276.906464,49.373348 257.906219,57.740574 239.687607,67.382317 
	C217.282257,79.239799 196.041779,93.310028 177.060364,110.217613 
	C161.804764,123.806419 147.077011,138.079468 133.042999,152.926071 
	C113.214813,173.902313 97.040588,197.715179 82.946075,222.863663 
	C68.446815,248.734329 57.006725,275.889252 48.524078,304.391602 
	C40.934628,329.892792 35.303074,355.788452 33.430611,382.207214 
	C31.930359,403.374451 32.831379,424.731201 33.093060,445.998596 
	C33.356979,467.448151 37.443981,488.396271 41.991550,509.302124 
	C48.743732,540.342896 59.567883,569.918091 73.607460,598.291443 
	C85.803650,622.939392 100.154114,646.384338 117.757126,667.569580 
	C129.616089,681.841736 141.931580,695.836670 155.105301,708.882874 
	C166.242416,719.912109 178.680206,729.682251 190.950806,739.499146 
	C207.149811,752.458923 224.778168,763.331970 243.053574,773.119263 
	C263.319153,783.972473 284.129028,793.606750 306.268951,800.059021 
	C321.395294,804.467285 336.364044,809.827271 351.787048,812.704834 
	C372.210663,816.515259 392.946594,819.150757 413.667267,820.701965 
	C428.493896,821.811951 443.516144,820.320129 458.450745,819.974487 
	C475.873779,819.571350 493.046570,817.046997 510.063965,813.505737 
	C522.788330,810.857788 535.792297,808.850220 548.012634,804.643005 
	C568.102234,797.726562 588.002930,790.023499 607.365356,781.283203 
	C645.443604,764.094543 678.971985,739.970703 709.412476,711.451294 
	C731.052307,691.177307 749.746277,668.496643 766.532104,644.056152 
	C786.323547,615.239441 801.792419,584.322815 812.980957,551.324890 
	C818.216064,535.884827 822.925415,520.109924 825.975769,504.124725 
	C829.940613,483.346741 833.122131,462.284363 834.571106,441.202087 
	C835.828491,422.907898 835.003784,404.355103 833.619446,386.028381 
	C832.325012,368.892242 830.202393,351.649689 826.405884,334.916473 
	C822.143860,316.131317 816.116699,297.688416 809.926270,279.411987 
	C799.361694,248.221863 783.727173,219.544342 765.155884,192.386612 
	C747.556702,166.650421 727.105408,143.485489 704.161438,122.411011 
	C685.281494,105.069420 664.712952,90.047211 642.361572,76.154732 
M1203.813843,615.247070 
	C1207.651001,613.442444 1211.492432,611.646851 1215.324463,609.831665 
	C1237.522095,599.316895 1257.083496,585.054626 1274.199585,567.540405 
	C1288.816406,552.583557 1300.912598,535.771729 1310.522095,517.086060 
	C1324.632080,489.648682 1332.174683,460.611389 1332.875854,429.841003 
	C1333.087280,420.561920 1332.588257,411.231354 1331.827759,401.972565 
	C1330.103882,380.990814 1324.742310,360.892578 1316.085327,341.695526 
	C1308.657104,325.223145 1299.561401,309.823090 1288.246582,295.618835 
	C1270.035645,272.757294 1248.037109,254.659378 1222.488770,240.650406 
	C1207.084717,232.203842 1190.901001,225.637726 1173.971191,221.203354 
	C1163.305054,218.409653 1152.289429,215.385223 1141.400146,215.267441 
	C1077.587891,214.577255 1013.766724,214.705490 949.948547,214.582428 
	C943.002197,214.569031 942.998596,214.642487 942.998901,221.946503 
	C943.004761,356.924835 943.010742,491.903198 943.027100,626.881531 
	C943.027283,628.337646 943.166016,629.793762 943.275696,631.950684 
	C945.815674,631.950684 948.093140,631.950989 950.370544,631.950623 
	C1004.028625,631.942200 1057.687012,631.820679 1111.344604,631.980835 
	C1132.785034,632.044861 1154.083984,631.079590 1174.806519,625.150269 
	C1184.368286,622.414307 1193.670410,618.771179 1203.813843,615.247070 
M3223.295166,375.206085 
	C3205.918945,352.934540 3182.951172,338.831940 3156.150879,331.395996 
	C3140.034424,326.924347 3123.291748,325.113251 3106.364746,325.897339 
	C3091.436768,326.588806 3076.793457,328.608368 3062.403076,332.665222 
	C3040.376465,338.874756 3020.669434,349.252319 3003.925049,364.953552 
	C3001.766846,366.977234 3000.590820,367.231567 2998.322021,364.986969 
	C2994.012695,360.723175 2989.500488,356.573853 2984.620605,352.992615 
	C2962.281982,336.598328 2936.932373,328.603546 2909.488281,326.599091 
	C2883.962158,324.734711 2859.046631,326.859314 2834.960693,336.396851 
	C2806.245117,347.767517 2782.916504,365.537811 2766.825928,392.172729 
	C2753.666260,413.955933 2747.108887,437.680481 2747.058838,463.103424 
	C2746.951172,517.758606 2747.006348,572.414062 2747.010986,627.069458 
	C2747.010986,628.513611 2747.195068,629.957764 2747.308594,631.628479 
	C2749.081055,631.745544 2750.546631,631.925171 2752.012451,631.926758 
	C2772.508301,631.948242 2793.005371,631.816406 2813.498779,632.042419 
	C2818.385254,632.096375 2819.684570,630.485107 2819.674316,625.694275 
	C2819.559570,571.373596 2819.219238,517.046875 2819.909912,462.734192 
	C2820.198730,440.031525 2831.302490,421.935272 2849.973145,409.151886 
	C2868.425537,396.518097 2888.949219,393.812286 2910.452881,399.431519 
	C2921.353271,402.279968 2931.194092,407.478424 2939.492676,415.257324 
	C2955.747070,430.493652 2962.925049,449.225067 2962.747070,471.543518 
	C2962.340332,522.529785 2962.600342,573.521484 2962.632812,624.510925 
	C2962.634521,626.926392 2963.055664,629.341614 2963.259521,631.522156 
	C2987.438477,631.522156 3011.011719,631.522156 3034.822998,631.522156 
	C3035.021729,627.619507 3035.349854,624.151917 3035.352051,620.684143 
	C3035.385254,570.194519 3035.300049,519.704590 3035.464844,469.215515 
	C3035.486816,462.449646 3035.773438,455.425568 3037.557617,448.968811 
	C3045.806885,419.119995 3068.710938,400.894226 3096.730225,397.371033 
	C3121.107178,394.305756 3142.747070,401.406219 3159.800781,419.929840 
	C3171.586670,432.731537 3178.220703,447.846680 3178.272461,465.312439 
	C3178.432129,519.299805 3178.304688,573.288025 3178.311279,627.275879 
	C3178.311279,628.710083 3178.565918,630.144348 3178.702148,631.580200 
	C3202.945801,631.580200 3226.699707,631.580200 3251.000244,631.580200 
	C3251.000244,629.600403 3251.000732,627.982178 3251.000488,626.363953 
	C3250.992676,574.374695 3251.038086,522.385254 3250.923584,470.396210 
	C3250.905029,461.933228 3250.588867,453.428680 3249.703125,445.017822 
	C3247.041016,419.739288 3238.933350,396.419525 3223.295166,375.206085 
M1715.043335,546.500000 
	C1715.043335,574.897522 1715.043335,603.295044 1715.043335,631.876831 
	C1738.419922,631.876831 1760.908203,631.827148 1783.395874,631.920105 
	C1787.724731,631.937988 1787.677612,629.121826 1787.676758,626.228821 
	C1787.660889,573.238586 1787.564453,520.248291 1787.669312,467.258331 
	C1787.680664,461.496155 1788.102539,455.545807 1789.562866,450.006805 
	C1797.687134,419.193451 1820.372681,401.816559 1847.948853,397.382629 
	C1860.530518,395.359619 1873.357422,396.748840 1885.569946,401.576447 
	C1913.152832,412.479675 1930.876221,437.978638 1930.945801,468.187927 
	C1931.067261,521.009644 1930.869629,573.832153 1930.826416,626.654297 
	C1930.825073,628.247742 1931.054565,629.841309 1931.214478,631.932617 
	C1933.642090,631.932617 1935.607910,631.932678 1937.573730,631.932617 
	C1956.070435,631.931458 1974.567383,631.963623 1993.063965,631.917114 
	C2004.768188,631.887695 2003.579834,632.886841 2003.016724,621.956299 
	C2002.948120,620.626648 2003.004395,619.290588 2003.004395,617.957458 
	C2003.004272,570.965454 2002.916992,523.973145 2003.089722,476.981720 
	C2003.118774,469.042877 2003.698730,461.013245 2005.000732,453.188019 
	C2010.393066,420.779358 2037.350952,400.509796 2065.471191,397.296021 
	C2076.566895,396.027924 2087.622803,397.008575 2098.656494,400.726074 
	C2111.767822,405.143646 2122.434082,412.760498 2130.868896,422.948425 
	C2141.457520,435.737579 2146.657959,451.003265 2146.613037,467.935120 
	C2146.474365,520.258118 2146.512939,572.581665 2146.525879,624.904968 
	C2146.526367,627.145142 2146.959473,629.385193 2147.186523,631.580566 
	C2171.320312,631.580566 2194.901123,631.580566 2219.000244,631.580566 
	C2219.000244,629.581543 2219.000732,627.959778 2219.000244,626.338013 
	C2218.990723,575.180115 2218.856201,524.021790 2219.033936,472.864532 
	C2219.102539,453.165283 2217.423584,433.865784 2211.312256,414.961487 
	C2205.489258,396.949005 2196.972168,380.640076 2183.906494,366.889069 
	C2165.725586,347.753906 2143.503418,335.958984 2117.762451,330.274200 
	C2103.891113,327.210724 2090.029541,325.506989 2075.799561,325.894684 
	C2055.213623,326.455536 2035.112671,329.754456 2016.017090,337.268433 
	C1999.895142,343.612244 1984.891602,352.348785 1972.500610,364.759979 
	C1969.568726,367.696838 1968.093140,366.925262 1965.748413,364.573273 
	C1962.412720,361.227142 1959.023560,357.881134 1955.318237,354.966125 
	C1942.495728,344.878479 1928.140137,337.588348 1912.494629,333.092499 
	C1903.819946,330.599731 1894.975586,328.003906 1886.052490,327.219391 
	C1869.531982,325.766724 1852.971436,325.201813 1836.341919,327.808105 
	C1823.714478,329.787170 1811.277954,332.520660 1799.722168,337.524109 
	C1779.773926,346.161255 1761.891602,358.019043 1747.517334,374.878784 
	C1727.500122,398.357574 1716.790161,425.688049 1715.408813,456.029999 
	C1714.053711,485.797211 1715.068481,515.672241 1715.043335,546.500000 
M1593.661621,335.989594 
	C1577.751099,326.851501 1560.368042,321.509613 1542.436401,319.271423 
	C1521.164917,316.616364 1499.748291,317.034454 1478.602539,322.133759 
	C1453.665649,328.147278 1431.380005,339.347351 1411.984619,355.931793 
	C1390.155273,374.597260 1374.392578,397.672546 1365.016235,424.901276 
	C1355.666138,452.053711 1354.254761,479.871613 1360.315796,507.779846 
	C1370.189209,553.241394 1396.275757,587.115173 1436.150635,610.641846 
	C1454.518799,621.479248 1474.352661,628.503357 1495.448120,630.835815 
	C1523.737061,633.963623 1551.698486,632.028076 1578.572510,621.457520 
	C1596.000000,614.602539 1612.185669,605.689148 1626.306641,593.240051 
	C1629.324829,590.579163 1629.849365,588.375610 1626.774780,585.092407 
	C1612.352173,569.690796 1598.115967,554.113708 1583.901001,538.519104 
	C1581.692139,536.095764 1580.119385,535.524048 1577.375854,538.021118 
	C1568.919922,545.717651 1559.302124,551.526001 1548.443848,555.387085 
	C1526.480713,563.196960 1504.740479,562.882263 1483.311279,553.791443 
	C1461.191650,544.407715 1445.542725,528.377686 1436.069702,506.314178 
	C1429.462891,490.926117 1427.918213,474.787415 1431.301392,458.632080 
	C1435.253296,439.761444 1444.749634,423.638062 1459.496460,410.920837 
	C1472.778931,399.466400 1488.146362,392.150574 1505.501343,389.848328 
	C1531.459961,386.404694 1554.874512,392.952301 1575.078247,409.793823 
	C1584.503052,417.650269 1592.170044,427.010925 1597.374390,439.122253 
	C1591.477661,439.420288 1586.203369,439.897583 1580.927124,439.917511 
	C1556.550659,440.009583 1532.173584,440.046326 1507.797607,439.909210 
	C1504.034058,439.888031 1503.033447,441.037292 1503.058594,444.759125 
	C1503.213257,467.754700 1503.132080,490.752014 1503.089966,513.748718 
	C1503.076660,520.998474 1503.021606,521.001160 1510.017700,521.001282 
	C1560.177856,521.002136 1610.338135,521.001831 1660.498291,521.001343 
	C1662.664673,521.001282 1664.959106,521.443542 1666.962402,520.870605 
	C1669.073853,520.266724 1672.328979,518.984802 1672.637207,517.493408 
	C1675.076050,505.692017 1678.033569,493.835175 1678.742065,481.871613 
	C1680.380127,454.209808 1674.136230,428.125366 1661.210938,403.429443 
	C1645.811401,374.005981 1623.739746,351.564392 1593.661621,335.989594 
M3495.011475,625.485596 
	C3497.507568,624.677734 3499.959229,623.666870 3502.510010,623.109253 
	C3506.432129,622.251892 3507.786865,620.624146 3506.092041,616.494812 
	C3499.139404,599.555664 3492.382568,582.535400 3485.661133,565.502502 
	C3484.533447,562.644836 3483.004883,561.637878 3479.996582,562.616028 
	C3468.531494,566.344055 3456.734131,567.150208 3444.727295,567.092834 
	C3428.937256,567.017334 3414.625732,562.028687 3402.103027,553.216614 
	C3375.745117,534.668640 3361.592285,508.991028 3360.856934,476.452698 
	C3360.207275,447.704987 3371.831299,423.705811 3392.330322,404.746429 
	C3410.177979,388.239014 3431.865967,379.939209 3457.080811,382.865814 
	C3471.656982,384.557648 3485.285645,388.688995 3497.215576,396.903656 
	C3523.286621,414.855316 3535.476074,440.809021 3535.927979,471.774750 
	C3536.640625,520.594482 3536.156982,569.431641 3536.186035,618.261475 
	C3536.190186,624.998596 3536.207031,625.001160 3543.104980,625.001587 
	C3563.270264,625.002991 3583.435547,625.002075 3603.600830,625.002075 
	C3605.346191,625.002075 3607.091553,625.002075 3609.001709,625.002075 
	C3609.001709,622.718567 3609.001709,621.224426 3609.001465,619.730286 
	C3608.994629,570.067078 3609.045898,520.403748 3608.951172,470.740723 
	C3608.916260,452.339752 3604.971436,434.626343 3598.024170,417.663574 
	C3588.443359,394.270813 3574.268066,374.151367 3555.120605,357.402496 
	C3530.182617,335.588318 3501.420166,322.474335 3468.626221,318.832550 
	C3438.880371,315.529327 3409.638184,318.500854 3382.205078,331.163971 
	C3354.749023,343.838013 3331.364746,361.539124 3314.479004,387.461975 
	C3306.412598,399.845306 3299.553711,412.528198 3295.003662,426.482178 
	C3288.838867,445.388794 3286.819580,464.753418 3287.924561,484.655670 
	C3288.956055,503.233215 3293.283936,520.847168 3300.779785,537.723999 
	C3310.003906,558.491699 3323.035889,576.488464 3340.053711,591.706726 
	C3354.079346,604.249573 3370.036377,613.611145 3387.178223,620.802002 
	C3400.857178,626.540344 3415.302490,630.227600 3430.214355,631.360779 
	C3451.847168,633.004761 3473.271484,631.984192 3495.011475,625.485596 
M2275.632568,398.066437 
	C2273.856445,401.404907 2271.901123,404.661713 2270.334961,408.095978 
	C2263.351807,423.409515 2258.705078,439.258453 2256.800049,456.153473 
	C2255.145020,470.833740 2255.190186,485.378998 2257.372314,499.774994 
	C2260.295898,519.064209 2267.105957,537.206055 2277.165283,554.022766 
	C2290.489258,576.297302 2307.878906,594.647949 2330.321289,607.834473 
	C2338.753418,612.788940 2347.430420,617.721497 2356.604004,620.921387 
	C2368.796631,625.174438 2381.409180,629.086243 2394.152100,630.717468 
	C2419.888428,634.012024 2445.423584,631.883301 2470.176758,623.195984 
	C2474.934570,621.526184 2475.843506,620.436523 2473.972900,615.839661 
	C2466.738770,598.060730 2459.508057,580.280457 2452.088379,562.039368 
	C2449.375000,562.546570 2446.727783,562.755432 2444.268311,563.547974 
	C2429.507568,568.304932 2414.250732,568.603638 2399.441406,565.724548 
	C2379.253906,561.799744 2362.712646,550.657898 2349.838135,534.563049 
	C2333.531738,514.177856 2326.233398,490.687286 2329.309814,464.856201 
	C2332.485596,438.189850 2345.223389,416.301727 2366.551270,399.646393 
	C2380.068848,389.090393 2395.476318,382.824799 2412.476318,382.292664 
	C2425.618408,381.881317 2438.737061,383.877594 2451.135498,389.206665 
	C2464.756104,395.061035 2476.415527,403.488342 2485.182129,415.367096 
	C2498.826904,433.855377 2504.374512,454.909882 2504.259033,477.816742 
	C2504.024902,524.311218 2504.193848,570.807739 2504.196777,617.303467 
	C2504.196777,619.746338 2504.197021,622.189148 2504.197021,625.002014 
	C2506.742188,625.002014 2508.549561,625.002075 2510.357178,625.002075 
	C2530.355469,625.002075 2550.353516,625.003296 2570.351807,625.001343 
	C2576.974365,625.000671 2576.994385,624.996765 2576.995361,618.464661 
	C2577.002197,568.135986 2577.116943,517.806763 2576.875488,467.479218 
	C2576.839111,459.904938 2575.504639,452.267517 2574.104980,444.783844 
	C2571.357910,430.096313 2565.983887,416.370880 2559.131348,403.023254 
	C2550.009521,385.256012 2537.705811,370.134308 2522.973389,357.018219 
	C2512.159424,347.390503 2500.031494,339.484741 2486.814697,333.263947 
	C2472.110596,326.343353 2456.790283,321.204895 2440.774414,319.250153 
	C2428.440186,317.744751 2415.830078,318.031128 2403.356201,318.262543 
	C2388.221924,318.543335 2373.475098,321.958344 2359.490723,327.460449 
	C2340.933350,334.761932 2323.631104,344.329437 2308.565186,357.882690 
	C2295.652588,369.499054 2284.679443,382.450867 2275.632568,398.066437 
M2625.653564,394.499756 
	C2625.650635,471.972107 2625.678467,549.444519 2625.557373,626.916687 
	C2625.551025,630.926941 2626.756592,632.039612 2630.634521,632.005127 
	C2649.292725,631.838928 2667.953369,631.907288 2686.613037,631.915222 
	C2698.399658,631.920227 2698.393799,631.938232 2698.393799,620.175293 
	C2698.392578,490.055023 2698.392334,359.934784 2698.396484,229.814514 
	C2698.396484,226.316177 2698.378418,222.815430 2698.496826,219.320190 
	C2698.608643,216.023804 2697.465332,214.660980 2693.851318,214.679794 
	C2672.694336,214.790054 2651.535889,214.697464 2630.378418,214.563690 
	C2627.092041,214.542908 2625.281982,215.460541 2625.601074,219.070160 
	C2625.732178,220.554489 2625.528564,222.065674 2625.529541,223.564621 
	C2625.566895,280.209656 2625.610840,336.854675 2625.653564,394.499756 
z"/>
<path fill="#FFFFFF" opacity="1.000000" stroke="none" 
	d="
M642.686157,76.327591 
	C664.712952,90.047211 685.281494,105.069420 704.161438,122.411011 
	C727.105408,143.485489 747.556702,166.650421 765.155884,192.386612 
	C783.727173,219.544342 799.361694,248.221863 809.926270,279.411987 
	C816.116699,297.688416 822.143860,316.131317 826.405884,334.916473 
	C830.202393,351.649689 832.325012,368.892242 833.619446,386.028381 
	C835.003784,404.355103 835.828491,422.907898 834.571106,441.202087 
	C833.122131,462.284363 829.940613,483.346741 825.975769,504.124725 
	C822.925415,520.109924 818.216064,535.884827 812.980957,551.324890 
	C801.792419,584.322815 786.323547,615.239441 766.532104,644.056152 
	C749.746277,668.496643 731.052307,691.177307 709.412476,711.451294 
	C678.971985,739.970703 645.443604,764.094543 607.365356,781.283203 
	C588.002930,790.023499 568.102234,797.726562 548.012634,804.643005 
	C535.792297,808.850220 522.788330,810.857788 510.063965,813.505737 
	C493.046570,817.046997 475.873779,819.571350 458.450745,819.974487 
	C443.516144,820.320129 428.493896,821.811951 413.667267,820.701965 
	C392.946594,819.150757 372.210663,816.515259 351.787048,812.704834 
	C336.364044,809.827271 321.395294,804.467285 306.268951,800.059021 
	C284.129028,793.606750 263.319153,783.972473 243.053574,773.119263 
	C224.778168,763.331970 207.149811,752.458923 190.950806,739.499146 
	C178.680206,729.682251 166.242416,719.912109 155.105301,708.882874 
	C141.931580,695.836670 129.616089,681.841736 117.757126,667.569580 
	C100.154114,646.384338 85.803650,622.939392 73.607460,598.291443 
	C59.567883,569.918091 48.743732,540.342896 41.991550,509.302124 
	C37.443981,488.396271 33.356979,467.448151 33.093060,445.998596 
	C32.831379,424.731201 31.930359,403.374451 33.430611,382.207214 
	C35.303074,355.788452 40.934628,329.892792 48.524078,304.391602 
	C57.006725,275.889252 68.446815,248.734329 82.946075,222.863663 
	C97.040588,197.715179 113.214813,173.902313 133.042999,152.926071 
	C147.077011,138.079468 161.804764,123.806419 177.060364,110.217613 
	C196.041779,93.310028 217.282257,79.239799 239.687607,67.382317 
	C257.906219,57.740574 276.906464,49.373348 296.122925,41.885399 
	C310.734253,36.191910 326.046814,31.939116 341.380554,28.554993 
	C358.260529,24.829617 375.483246,22.558729 392.625519,20.143276 
	C418.290497,16.526934 444.159821,17.109734 469.820129,19.252766 
	C500.206390,21.790480 529.973877,28.039661 559.038025,37.825176 
	C588.238281,47.656517 616.201843,59.865181 642.686157,76.327591 
M262.500031,203.000549 
	C254.750916,203.000549 247.001785,203.000549 239.478531,203.000549 
	C239.197662,204.165527 239.052826,204.486237 239.052597,204.807037 
	C239.028458,238.633621 239.043747,272.460297 238.953003,306.286652 
	C238.944763,309.358185 240.055878,310.402832 243.044861,310.326416 
	C248.826004,310.178650 254.613571,310.283264 260.998962,310.283264 
	C260.998962,312.616394 260.998932,314.397949 260.998962,316.179535 
	C260.999481,400.163208 261.040253,484.146942 260.895111,568.130371 
	C260.886871,572.903809 262.096527,574.362671 266.954102,574.336914 
	C299.780029,574.162964 332.607819,574.216492 365.434082,574.380371 
	C369.647644,574.401367 371.157928,573.447021 371.149261,568.849670 
	C370.989685,484.199402 371.049316,399.548767 370.907318,314.898468 
	C370.899292,310.115601 372.743439,308.817352 377.058289,308.962250 
	C390.162354,309.402222 403.271301,309.713196 416.380096,309.990509 
	C422.376465,310.117401 428.377167,310.030670 434.375671,310.070404 
	C457.127563,310.221008 477.724335,317.015503 496.082062,330.408813 
	C522.364380,349.583771 535.774780,376.002808 538.799622,407.941833 
	C541.455688,435.987183 533.583984,461.644470 519.986450,485.818970 
	C507.154907,508.631653 489.977295,527.706970 470.008850,544.523010 
	C450.798553,560.700623 429.938049,574.362549 407.402008,585.184509 
	C388.523865,594.249878 369.261536,602.760986 349.550842,609.780884 
	C327.944000,617.476074 305.650024,623.255310 283.606689,629.702576 
	C277.687561,631.433960 271.590912,632.558411 265.575745,633.961426 
	C265.604279,634.420898 265.632843,634.880432 265.661407,635.339905 
	C267.535034,635.596252 269.408478,636.074585 271.282349,636.076416 
	C320.106232,636.123657 368.930298,636.044312 417.753937,636.163147 
	C439.476898,636.215942 461.044067,635.724060 482.493500,631.193542 
	C500.322815,627.427551 517.399780,621.763611 533.553162,613.693176 
	C556.787842,602.085022 577.373230,586.733154 595.253845,567.691345 
	C618.876587,542.534546 635.556030,513.520935 645.444702,480.535858 
	C651.488892,460.374390 654.740417,439.551941 654.506042,418.712067 
	C654.276123,398.278107 651.254578,377.902954 645.242798,358.032379 
	C637.681213,333.039429 626.267456,310.157013 610.755066,289.279053 
	C600.187439,275.056091 587.944092,262.395905 574.117859,251.267792 
	C560.922852,240.647705 546.741028,231.513077 531.615173,224.002823 
	C523.900024,220.172119 515.509583,217.698059 507.414093,214.637863 
	C489.058105,207.699020 469.958282,203.490829 450.458984,203.323181 
	C388.143005,202.787323 325.820190,203.047623 262.500031,203.000549 
z"/>
<path fill="#FFFEFE" opacity="1.000000" stroke="none" 
	d="
M1203.452148,615.393188 
	C1193.670410,618.771179 1184.368286,622.414307 1174.806519,625.150269 
	C1154.083984,631.079590 1132.785034,632.044861 1111.344604,631.980835 
	C1057.687012,631.820679 1004.028625,631.942200 950.370544,631.950623 
	C948.093140,631.950989 945.815674,631.950684 943.275696,631.950684 
	C943.166016,629.793762 943.027283,628.337646 943.027100,626.881531 
	C943.010742,491.903198 943.004761,356.924835 942.998901,221.946503 
	C942.998596,214.642487 943.002197,214.569031 949.948547,214.582428 
	C1013.766724,214.705490 1077.587891,214.577255 1141.400146,215.267441 
	C1152.289429,215.385223 1163.305054,218.409653 1173.971191,221.203354 
	C1190.901001,225.637726 1207.084717,232.203842 1222.488770,240.650406 
	C1248.037109,254.659378 1270.035645,272.757294 1288.246582,295.618835 
	C1299.561401,309.823090 1308.657104,325.223145 1316.085327,341.695526 
	C1324.742310,360.892578 1330.103882,380.990814 1331.827759,401.972565 
	C1332.588257,411.231354 1333.087280,420.561920 1332.875854,429.841003 
	C1332.174683,460.611389 1324.632080,489.648682 1310.522095,517.086060 
	C1300.912598,535.771729 1288.816406,552.583557 1274.199585,567.540405 
	C1257.083496,585.054626 1237.522095,599.316895 1215.324463,609.831665 
	C1211.492432,611.646851 1207.651001,613.442444 1203.452148,615.393188 
M1238.122437,360.526184 
	C1233.061890,352.225555 1228.787476,343.303741 1222.804565,335.731873 
	C1196.991333,303.063477 1163.274902,285.477661 1121.317871,285.061157 
	C1090.829834,284.758453 1060.336426,285.001953 1029.845337,285.001892 
	C1028.262085,285.001892 1026.678711,285.001862 1024.634644,285.001862 
	C1024.634644,287.923737 1024.634644,290.078918 1024.634644,292.234131 
	C1024.634644,380.374969 1024.664429,468.515808 1024.547485,556.656494 
	C1024.541504,561.121094 1025.963867,562.275513 1030.280151,562.252869 
	C1059.604004,562.098999 1088.932739,562.467529 1118.251587,562.058411 
	C1128.432251,561.916382 1138.757568,560.864624 1148.724243,558.809692 
	C1175.923584,553.201538 1198.933472,539.914185 1217.088013,518.725586 
	C1240.448242,491.461334 1251.608032,459.539093 1251.796631,423.883392 
	C1251.911499,402.139801 1247.598267,381.104950 1238.122437,360.526184 
z"/>
<path fill="#FFFEFE" opacity="1.000000" stroke="none" 
	d="
M3223.491211,375.517731 
	C3238.933350,396.419525 3247.041016,419.739288 3249.703125,445.017822 
	C3250.588867,453.428680 3250.905029,461.933228 3250.923584,470.396210 
	C3251.038086,522.385254 3250.992676,574.374695 3251.000488,626.363953 
	C3251.000732,627.982178 3251.000244,629.600403 3251.000244,631.580200 
	C3226.699707,631.580200 3202.945801,631.580200 3178.702148,631.580200 
	C3178.565918,630.144348 3178.311279,628.710083 3178.311279,627.275879 
	C3178.304688,573.288025 3178.432129,519.299805 3178.272461,465.312439 
	C3178.220703,447.846680 3171.586670,432.731537 3159.800781,419.929840 
	C3142.747070,401.406219 3121.107178,394.305756 3096.730225,397.371033 
	C3068.710938,400.894226 3045.806885,419.119995 3037.557617,448.968811 
	C3035.773438,455.425568 3035.486816,462.449646 3035.464844,469.215515 
	C3035.300049,519.704590 3035.385254,570.194519 3035.352051,620.684143 
	C3035.349854,624.151917 3035.021729,627.619507 3034.822998,631.522156 
	C3011.011719,631.522156 2987.438477,631.522156 2963.259521,631.522156 
	C2963.055664,629.341614 2962.634521,626.926392 2962.632812,624.510925 
	C2962.600342,573.521484 2962.340332,522.529785 2962.747070,471.543518 
	C2962.925049,449.225067 2955.747070,430.493652 2939.492676,415.257324 
	C2931.194092,407.478424 2921.353271,402.279968 2910.452881,399.431519 
	C2888.949219,393.812286 2868.425537,396.518097 2849.973145,409.151886 
	C2831.302490,421.935272 2820.198730,440.031525 2819.909912,462.734192 
	C2819.219238,517.046875 2819.559570,571.373596 2819.674316,625.694275 
	C2819.684570,630.485107 2818.385254,632.096375 2813.498779,632.042419 
	C2793.005371,631.816406 2772.508301,631.948242 2752.012451,631.926758 
	C2750.546631,631.925171 2749.081055,631.745544 2747.308594,631.628479 
	C2747.195068,629.957764 2747.010986,628.513611 2747.010986,627.069458 
	C2747.006348,572.414062 2746.951172,517.758606 2747.058838,463.103424 
	C2747.108887,437.680481 2753.666260,413.955933 2766.825928,392.172729 
	C2782.916504,365.537811 2806.245117,347.767517 2834.960693,336.396851 
	C2859.046631,326.859314 2883.962158,324.734711 2909.488281,326.599091 
	C2936.932373,328.603546 2962.281982,336.598328 2984.620605,352.992615 
	C2989.500488,356.573853 2994.012695,360.723175 2998.322021,364.986969 
	C3000.590820,367.231567 3001.766846,366.977234 3003.925049,364.953552 
	C3020.669434,349.252319 3040.376465,338.874756 3062.403076,332.665222 
	C3076.793457,328.608368 3091.436768,326.588806 3106.364746,325.897339 
	C3123.291748,325.113251 3140.034424,326.924347 3156.150879,331.395996 
	C3182.951172,338.831940 3205.918945,352.934540 3223.491211,375.517731 
z"/>
<path fill="#FFFEFE" opacity="1.000000" stroke="none" 
	d="
M1715.043335,546.000000 
	C1715.068481,515.672241 1714.053711,485.797211 1715.408813,456.029999 
	C1716.790161,425.688049 1727.500122,398.357574 1747.517334,374.878784 
	C1761.891602,358.019043 1779.773926,346.161255 1799.722168,337.524109 
	C1811.277954,332.520660 1823.714478,329.787170 1836.341919,327.808105 
	C1852.971436,325.201813 1869.531982,325.766724 1886.052490,327.219391 
	C1894.975586,328.003906 1903.819946,330.599731 1912.494629,333.092499 
	C1928.140137,337.588348 1942.495728,344.878479 1955.318237,354.966125 
	C1959.023560,357.881134 1962.412720,361.227142 1965.748413,364.573273 
	C1968.093140,366.925262 1969.568726,367.696838 1972.500610,364.759979 
	C1984.891602,352.348785 1999.895142,343.612244 2016.017090,337.268433 
	C2035.112671,329.754456 2055.213623,326.455536 2075.799561,325.894684 
	C2090.029541,325.506989 2103.891113,327.210724 2117.762451,330.274200 
	C2143.503418,335.958984 2165.725586,347.753906 2183.906494,366.889069 
	C2196.972168,380.640076 2205.489258,396.949005 2211.312256,414.961487 
	C2217.423584,433.865784 2219.102539,453.165283 2219.033936,472.864532 
	C2218.856201,524.021790 2218.990723,575.180115 2219.000244,626.338013 
	C2219.000732,627.959778 2219.000244,629.581543 2219.000244,631.580566 
	C2194.901123,631.580566 2171.320312,631.580566 2147.186523,631.580566 
	C2146.959473,629.385193 2146.526367,627.145142 2146.525879,624.904968 
	C2146.512939,572.581665 2146.474365,520.258118 2146.613037,467.935120 
	C2146.657959,451.003265 2141.457520,435.737579 2130.868896,422.948425 
	C2122.434082,412.760498 2111.767822,405.143646 2098.656494,400.726074 
	C2087.622803,397.008575 2076.566895,396.027924 2065.471191,397.296021 
	C2037.350952,400.509796 2010.393066,420.779358 2005.000732,453.188019 
	C2003.698730,461.013245 2003.118774,469.042877 2003.089722,476.981720 
	C2002.916992,523.973145 2003.004272,570.965454 2003.004395,617.957458 
	C2003.004395,619.290588 2002.948120,620.626648 2003.016724,621.956299 
	C2003.579834,632.886841 2004.768188,631.887695 1993.063965,631.917114 
	C1974.567383,631.963623 1956.070435,631.931458 1937.573730,631.932617 
	C1935.607910,631.932678 1933.642090,631.932617 1931.214478,631.932617 
	C1931.054565,629.841309 1930.825073,628.247742 1930.826416,626.654297 
	C1930.869629,573.832153 1931.067261,521.009644 1930.945801,468.187927 
	C1930.876221,437.978638 1913.152832,412.479675 1885.569946,401.576447 
	C1873.357422,396.748840 1860.530518,395.359619 1847.948853,397.382629 
	C1820.372681,401.816559 1797.687134,419.193451 1789.562866,450.006805 
	C1788.102539,455.545807 1787.680664,461.496155 1787.669312,467.258331 
	C1787.564453,520.248291 1787.660889,573.238586 1787.676758,626.228821 
	C1787.677612,629.121826 1787.724731,631.937988 1783.395874,631.920105 
	C1760.908203,631.827148 1738.419922,631.876831 1715.043335,631.876831 
	C1715.043335,603.295044 1715.043335,574.897522 1715.043335,546.000000 
z"/>
<path fill="#FFFEFE" opacity="1.000000" stroke="none" 
	d="
M1594.022949,336.087433 
	C1623.739746,351.564392 1645.811401,374.005981 1661.210938,403.429443 
	C1674.136230,428.125366 1680.380127,454.209808 1678.742065,481.871613 
	C1678.033569,493.835175 1675.076050,505.692017 1672.637207,517.493408 
	C1672.328979,518.984802 1669.073853,520.266724 1666.962402,520.870605 
	C1664.959106,521.443542 1662.664673,521.001282 1660.498291,521.001343 
	C1610.338135,521.001831 1560.177856,521.002136 1510.017700,521.001282 
	C1503.021606,521.001160 1503.076660,520.998474 1503.089966,513.748718 
	C1503.132080,490.752014 1503.213257,467.754700 1503.058594,444.759125 
	C1503.033447,441.037292 1504.034058,439.888031 1507.797607,439.909210 
	C1532.173584,440.046326 1556.550659,440.009583 1580.927124,439.917511 
	C1586.203369,439.897583 1591.477661,439.420288 1597.374390,439.122253 
	C1592.170044,427.010925 1584.503052,417.650269 1575.078247,409.793823 
	C1554.874512,392.952301 1531.459961,386.404694 1505.501343,389.848328 
	C1488.146362,392.150574 1472.778931,399.466400 1459.496460,410.920837 
	C1444.749634,423.638062 1435.253296,439.761444 1431.301392,458.632080 
	C1427.918213,474.787415 1429.462891,490.926117 1436.069702,506.314178 
	C1445.542725,528.377686 1461.191650,544.407715 1483.311279,553.791443 
	C1504.740479,562.882263 1526.480713,563.196960 1548.443848,555.387085 
	C1559.302124,551.526001 1568.919922,545.717651 1577.375854,538.021118 
	C1580.119385,535.524048 1581.692139,536.095764 1583.901001,538.519104 
	C1598.115967,554.113708 1612.352173,569.690796 1626.774780,585.092407 
	C1629.849365,588.375610 1629.324829,590.579163 1626.306641,593.240051 
	C1612.185669,605.689148 1596.000000,614.602539 1578.572510,621.457520 
	C1551.698486,632.028076 1523.737061,633.963623 1495.448120,630.835815 
	C1474.352661,628.503357 1454.518799,621.479248 1436.150635,610.641846 
	C1396.275757,587.115173 1370.189209,553.241394 1360.315796,507.779846 
	C1354.254761,479.871613 1355.666138,452.053711 1365.016235,424.901276 
	C1374.392578,397.672546 1390.155273,374.597260 1411.984619,355.931793 
	C1431.380005,339.347351 1453.665649,328.147278 1478.602539,322.133759 
	C1499.748291,317.034454 1521.164917,316.616364 1542.436401,319.271423 
	C1560.368042,321.509613 1577.751099,326.851501 1594.022949,336.087433 
z"/>
<path fill="#FFFEFE" opacity="1.000000" stroke="none" 
	d="
M3494.613525,625.590820 
	C3473.271484,631.984192 3451.847168,633.004761 3430.214355,631.360779 
	C3415.302490,630.227600 3400.857178,626.540344 3387.178223,620.802002 
	C3370.036377,613.611145 3354.079346,604.249573 3340.053711,591.706726 
	C3323.035889,576.488464 3310.003906,558.491699 3300.779785,537.723999 
	C3293.283936,520.847168 3288.956055,503.233215 3287.924561,484.655670 
	C3286.819580,464.753418 3288.838867,445.388794 3295.003662,426.482178 
	C3299.553711,412.528198 3306.412598,399.845306 3314.479004,387.461975 
	C3331.364746,361.539124 3354.749023,343.838013 3382.205078,331.163971 
	C3409.638184,318.500854 3438.880371,315.529327 3468.626221,318.832550 
	C3501.420166,322.474335 3530.182617,335.588318 3555.120605,357.402496 
	C3574.268066,374.151367 3588.443359,394.270813 3598.024170,417.663574 
	C3604.971436,434.626343 3608.916260,452.339752 3608.951172,470.740723 
	C3609.045898,520.403748 3608.994629,570.067078 3609.001465,619.730286 
	C3609.001709,621.224426 3609.001709,622.718567 3609.001709,625.002075 
	C3607.091553,625.002075 3605.346191,625.002075 3603.600830,625.002075 
	C3583.435547,625.002075 3563.270264,625.002991 3543.104980,625.001587 
	C3536.207031,625.001160 3536.190186,624.998596 3536.186035,618.261475 
	C3536.156982,569.431641 3536.640625,520.594482 3535.927979,471.774750 
	C3535.476074,440.809021 3523.286621,414.855316 3497.215576,396.903656 
	C3485.285645,388.688995 3471.656982,384.557648 3457.080811,382.865814 
	C3431.865967,379.939209 3410.177979,388.239014 3392.330322,404.746429 
	C3371.831299,423.705811 3360.207275,447.704987 3360.856934,476.452698 
	C3361.592285,508.991028 3375.745117,534.668640 3402.103027,553.216614 
	C3414.625732,562.028687 3428.937256,567.017334 3444.727295,567.092834 
	C3456.734131,567.150208 3468.531494,566.344055 3479.996582,562.616028 
	C3483.004883,561.637878 3484.533447,562.644836 3485.661133,565.502502 
	C3492.382568,582.535400 3499.139404,599.555664 3506.092041,616.494812 
	C3507.786865,620.624146 3506.432129,622.251892 3502.510010,623.109253 
	C3499.959229,623.666870 3497.507568,624.677734 3494.613525,625.590820 
z"/>
<path fill="#FFFEFE" opacity="1.000000" stroke="none" 
	d="
M2275.813965,397.743958 
	C2284.679443,382.450867 2295.652588,369.499054 2308.565186,357.882690 
	C2323.631104,344.329437 2340.933350,334.761932 2359.490723,327.460449 
	C2373.475098,321.958344 2388.221924,318.543335 2403.356201,318.262543 
	C2415.830078,318.031128 2428.440186,317.744751 2440.774414,319.250153 
	C2456.790283,321.204895 2472.110596,326.343353 2486.814697,333.263947 
	C2500.031494,339.484741 2512.159424,347.390503 2522.973389,357.018219 
	C2537.705811,370.134308 2550.009521,385.256012 2559.131348,403.023254 
	C2565.983887,416.370880 2571.357910,430.096313 2574.104980,444.783844 
	C2575.504639,452.267517 2576.839111,459.904938 2576.875488,467.479218 
	C2577.116943,517.806763 2577.002197,568.135986 2576.995361,618.464661 
	C2576.994385,624.996765 2576.974365,625.000671 2570.351807,625.001343 
	C2550.353516,625.003296 2530.355469,625.002075 2510.357178,625.002075 
	C2508.549561,625.002075 2506.742188,625.002014 2504.197021,625.002014 
	C2504.197021,622.189148 2504.196777,619.746338 2504.196777,617.303467 
	C2504.193848,570.807739 2504.024902,524.311218 2504.259033,477.816742 
	C2504.374512,454.909882 2498.826904,433.855377 2485.182129,415.367096 
	C2476.415527,403.488342 2464.756104,395.061035 2451.135498,389.206665 
	C2438.737061,383.877594 2425.618408,381.881317 2412.476318,382.292664 
	C2395.476318,382.824799 2380.068848,389.090393 2366.551270,399.646393 
	C2345.223389,416.301727 2332.485596,438.189850 2329.309814,464.856201 
	C2326.233398,490.687286 2333.531738,514.177856 2349.838135,534.563049 
	C2362.712646,550.657898 2379.253906,561.799744 2399.441406,565.724548 
	C2414.250732,568.603638 2429.507568,568.304932 2444.268311,563.547974 
	C2446.727783,562.755432 2449.375000,562.546570 2452.088379,562.039368 
	C2459.508057,580.280457 2466.738770,598.060730 2473.972900,615.839661 
	C2475.843506,620.436523 2474.934570,621.526184 2470.176758,623.195984 
	C2445.423584,631.883301 2419.888428,634.012024 2394.152100,630.717468 
	C2381.409180,629.086243 2368.796631,625.174438 2356.604004,620.921387 
	C2347.430420,617.721497 2338.753418,612.788940 2330.321289,607.834473 
	C2307.878906,594.647949 2290.489258,576.297302 2277.165283,554.022766 
	C2267.105957,537.206055 2260.295898,519.064209 2257.372314,499.774994 
	C2255.190186,485.378998 2255.145020,470.833740 2256.800049,456.153473 
	C2258.705078,439.258453 2263.351807,423.409515 2270.334961,408.095978 
	C2271.901123,404.661713 2273.856445,401.404907 2275.813965,397.743958 
z"/>
<path fill="#FFFFFF" opacity="1.000000" stroke="none" 
	d="
M2625.653809,393.999756 
	C2625.610840,336.854675 2625.566895,280.209656 2625.529541,223.564621 
	C2625.528564,222.065674 2625.732178,220.554489 2625.601074,219.070160 
	C2625.281982,215.460541 2627.092041,214.542908 2630.378418,214.563690 
	C2651.535889,214.697464 2672.694336,214.790054 2693.851318,214.679794 
	C2697.465332,214.660980 2698.608643,216.023804 2698.496826,219.320190 
	C2698.378418,222.815430 2698.396484,226.316177 2698.396484,229.814514 
	C2698.392334,359.934784 2698.392578,490.055023 2698.393799,620.175293 
	C2698.393799,631.938232 2698.399658,631.920227 2686.613037,631.915222 
	C2667.953369,631.907288 2649.292725,631.838928 2630.634521,632.005127 
	C2626.756592,632.039612 2625.551025,630.926941 2625.557373,626.916687 
	C2625.678467,549.444519 2625.650635,471.972107 2625.653809,393.999756 
z"/>
<path fill="#E71884" opacity="1.000000" stroke="none" 
	d="
M263.000000,203.000549 
	C325.820190,203.047623 388.143005,202.787323 450.458984,203.323181 
	C469.958282,203.490829 489.058105,207.699020 507.414093,214.637863 
	C515.509583,217.698059 523.900024,220.172119 531.615173,224.002823 
	C546.741028,231.513077 560.922852,240.647705 574.117859,251.267792 
	C587.944092,262.395905 600.187439,275.056091 610.755066,289.279053 
	C626.267456,310.157013 637.681213,333.039429 645.242798,358.032379 
	C651.254578,377.902954 654.276123,398.278107 654.506042,418.712067 
	C654.740417,439.551941 651.488892,460.374390 645.444702,480.535858 
	C635.556030,513.520935 618.876587,542.534546 595.253845,567.691345 
	C577.373230,586.733154 556.787842,602.085022 533.553162,613.693176 
	C517.399780,621.763611 500.322815,627.427551 482.493500,631.193542 
	C461.044067,635.724060 439.476898,636.215942 417.753937,636.163147 
	C368.930298,636.044312 320.106232,636.123657 271.282349,636.076416 
	C269.408478,636.074585 267.535034,635.596252 265.661407,635.339905 
	C265.632843,634.880432 265.604279,634.420898 265.575745,633.961426 
	C271.590912,632.558411 277.687561,631.433960 283.606689,629.702576 
	C305.650024,623.255310 327.944000,617.476074 349.550842,609.780884 
	C369.261536,602.760986 388.523865,594.249878 407.402008,585.184509 
	C429.938049,574.362549 450.798553,560.700623 470.008850,544.523010 
	C489.977295,527.706970 507.154907,508.631653 519.986450,485.818970 
	C533.583984,461.644470 541.455688,435.987183 538.799622,407.941833 
	C535.774780,376.002808 522.364380,349.583771 496.082062,330.408813 
	C477.724335,317.015503 457.127563,310.221008 434.375671,310.070404 
	C428.377167,310.030670 422.376465,310.117401 416.380096,309.990509 
	C403.271301,309.713196 390.162354,309.402222 377.058289,308.962250 
	C372.743439,308.817352 370.899292,310.115601 370.907318,314.898468 
	C371.049316,399.548767 370.989685,484.199402 371.149261,568.849670 
	C371.157928,573.447021 369.647644,574.401367 365.434082,574.380371 
	C332.607819,574.216492 299.780029,574.162964 266.954102,574.336914 
	C262.096527,574.362671 260.886871,572.903809 260.895111,568.130371 
	C261.040253,484.146942 260.999481,400.163208 260.998962,316.179535 
	C260.998932,314.397949 260.998962,312.616394 260.998962,310.283264 
	C254.613571,310.283264 248.826004,310.178650 243.044861,310.326416 
	C240.055878,310.402832 238.944763,309.358185 238.953003,306.286652 
	C239.043747,272.460297 239.028458,238.633621 239.052597,204.807037 
	C239.052826,204.486237 239.197662,204.165527 239.478531,203.000549 
	C247.001785,203.000549 254.750916,203.000549 263.000000,203.000549 
z"/>
<path fill="#E71884" opacity="1.000000" stroke="none" 
	d="
M1238.269775,360.877258 
	C1247.598267,381.104950 1251.911499,402.139801 1251.796631,423.883392 
	C1251.608032,459.539093 1240.448242,491.461334 1217.088013,518.725586 
	C1198.933472,539.914185 1175.923584,553.201538 1148.724243,558.809692 
	C1138.757568,560.864624 1128.432251,561.916382 1118.251587,562.058411 
	C1088.932739,562.467529 1059.604004,562.098999 1030.280151,562.252869 
	C1025.963867,562.275513 1024.541504,561.121094 1024.547485,556.656494 
	C1024.664429,468.515808 1024.634644,380.374969 1024.634644,292.234131 
	C1024.634644,290.078918 1024.634644,287.923737 1024.634644,285.001862 
	C1026.678711,285.001862 1028.262085,285.001892 1029.845337,285.001892 
	C1060.336426,285.001953 1090.829834,284.758453 1121.317871,285.061157 
	C1163.274902,285.477661 1196.991333,303.063477 1222.804565,335.731873 
	C1228.787476,343.303741 1233.061890,352.225555 1238.269775,360.877258 
z"/>
</svg>